<ttFont>
          <CharString index="0">
            rmoveto
            192 143 170 189 178 -134 183 -199 -192 -144 -171 -189 -182 135 -178 199 hvcurveto
            -243 360 rmoveto
            138 93 140 151 144 99 -133 -145 -137 -92 -142 -151 -147 -97 134 145 vhcurveto
            return
          </CharString>
          <CharString index="1">
            rmoveto
            157 107 125 145 146 -108 125 -156 -155 -108 -125 -146 -145 106 -125 157 hvcurveto
            -173 269 rmoveto
            109 78 87 95 96 78 -86 -108 -109 -78 -86 -96 -96 -77 84 109 vhcurveto
            return
          </CharString>
          <CharString index="2">
            -20 1 -8 9 22 vvcurveto
            414 -88 -327 vlineto
            -80 -31 -69 -49 -72 hhcurveto
            -74 -37 53 107 hvcurveto
            296 -88 -313 vlineto
            -144 57 -75 109 vhcurveto
            return
          </CharString>
          <CharString index="3">
            10 hmoveto
            96 hlineto
            83 208 rlineto
            298 hlineto
            84 -208 rlineto
            96 hlineto
            -290 710 rlineto
            -76 hlineto
            -94 -432 rmoveto
            132 328 128 -328 rlineto
            return
          </CharString>
          <CharString index="4">
            153 -98 hlineto
            -76 -63 -70 -36 -76 hhcurveto
            -140 -107 127 152 144 93 135 145 87 75 -40 -82 42 hvcurveto
            69 48 rlineto
            92 -46 -88 63 -137 hhcurveto
            -190 -141 -167 -191 -183 143 -179 188 82 71 33 68 63 hvcurveto
            return
          </CharString>
          <CharString index="5">
            299 -10 -106 callsubr
            return
          </CharString>
          <CharString index="6">
            -90 callgsubr
            90 630 rmoveto
            209 hlineto
            69 60 -67 -80 -78 -49 -70 -74 hvcurveto
            -215 hlineto
            return
          </CharString>
          <CharString index="7">
            rmoveto
            -88 hlineto
            -58 -101 58 -20 rlineto
            return
          </CharString>
          <CharString index="8">
            rmoveto
            -121 -293 -241 606 rlineto
            -97 hlineto
            296 -710 rlineto
            78 hlineto
            142 335 141 -335 rlineto
            78 hlineto
            297 710 rlineto
            -98 hlineto
            -240 -606 -122 293 123 309 rlineto
            -85 hlineto
            -95 -247 -94 247 rlineto
            -85 hlineto
            return
          </CharString>
          <CharString index="9">
            rmoveto
            -147 109 -125 157 105 87 55 76 31 vhcurveto
            -86 26 rlineto
            -44 -16 -62 -37 -61 hhcurveto
            -95 -79 86 110 111 76 82 97 58 51 -29 -49 27 hvcurveto
            86 27 rlineto
            77 -38 -79 50 -103 hhcurveto
            -159 -106 -122 -147 hvcurveto
            return
          </CharString>
          <CharString index="10">
            -107 callgsubr
            endchar
          </CharString>
          <CharString index="11">
            rmoveto
            74 73 40 64 39 hvcurveto
            -92 vlineto
            -109 -82 -52 -96 -75 -70 31 61 -41 vhcurveto
            -51 -45 rlineto
            -71 49 70 -44 118 hhcurveto
            148 118 81 148 hvcurveto
            516 -78 -104 vlineto
            return
          </CharString>
          <CharString index="12">
            rmoveto
            85 77 70 99 hvcurveto
            539 -88 -545 vlineto
            -49 -41 -36 -43 -24 -26 6 17 -19 vhcurveto
            -41 -59 rlineto
            -29 32 42 -13 46 hhcurveto
            return
          </CharString>
          <CharString index="13">
            rmoveto
            101 -90 rlineto
            64 hlineto
            101 90 -48 24 -85 -63 -85 63 rlineto
            return
          </CharString>
          <CharString index="14">
            49 -60 -78 32 -95 hhcurveto
            -147 -108 -74 -136 -113 75 -39 144 -35 hvcurveto
            132 -32 73 -24 -80 vvcurveto
            return
          </CharString>
          <CharString index="15">
            65 -44 -64 48 -87 hhcurveto
            -143 -99 -124 -147 -139 99 -127 142 hvcurveto
            27 72 rmoveto
            -100 -79 88 104 97 65 100 106 69 70 -51 -71 28 hvcurveto
            -150 vlineto
            -59 -14 -71 -58 -74 hhcurveto
            return
          </CharString>
          <CharString index="16">
            rmoveto
            102 -74 -102 vlineto
            236 hmoveto
            102 -74 -102 vlineto
            return
          </CharString>
          <CharString index="17">
            -46 -17 -44 -32 -52 vvcurveto
            -67 70 -55 95 90 77 49 71 vhcurveto
            -56 6 rmoveto
            -43 -55 -28 -54 -52 -59 26 44 44 54 29 56 52 58 -27 -45 vhcurveto
            return
          </CharString>
          <CharString index="18">
            rmoveto
            -88 217 89 217 rlineto
            -73 hlineto
            -64 -167 -64 167 rlineto
            -73 hlineto
            90 -217 -88 -217 -180 435 rlineto
            -84 hlineto
            222 -522 rlineto
            73 hlineto
            104 255 105 -255 rlineto
            73 hlineto
            222 522 rlineto
            -85 hlineto
            return
          </CharString>
          <CharString index="19">
            -213 rmoveto
            30 81 rlineto
            84 -78 -84 25 vlineto
            -20 -81 rlineto
            return
          </CharString>
          <CharString index="20">
            rmoveto
            85 21 88 15 hvcurveto
            -52 hlineto
            -4 -5 -45 -51 vhcurveto
            return
          </CharString>
          <CharString index="21">
            13 2 callgsubr
            269 -449 rlineto
            -261 90 259 vlineto
            270 451 rlineto
            -98 hlineto
            -217 -370 -215 370 rlineto
            return
          </CharString>
          <CharString index="22">
            -31 1 27 -23 34 hhcurveto
            11 9 0 3 20 hvcurveto
            76 vlineto
            return
          </CharString>
          <CharString index="23">
            rmoveto
            122 75 106 99 89 -67 117 -130 -122 -76 -108 -98 -91 67 -114 131 hvcurveto
            -141 205 rmoveto
            64 45 87 96 90 51 -80 -71 -63 -45 -87 -96 -92 -49 80 70 vhcurveto
            endchar
          </CharString>
          <CharString index="24">
            -50 -8 79 272 68 220 79 hstemhm
            49 90 -66 66 -66 89 274 90 -66 66 -66 89 hintmask 1111000010000000
            549 201 rmoveto
            87 -62 64 -72 28 vhcurveto
            hintmask 1110100100000000
            60 25 51 54 66 vvcurveto
            120 -120 65 -107 -106 -120 -66 -120 -66 50 -53 59 -25 vhcurveto
            hintmask 1111000010000000
            -64 -25 -69 -62 -88 vvcurveto
            -120 106 -93 142 136 116 82 127 vhcurveto
            -89 6 rmoveto
            -81 -81 -55 -79 -77 -84 51 84 83 79 54 80 77 85 -50 -86 vhcurveto
            hintmask 1110011000000000
            -298 314 rmoveto
            68 65 42 71 72 66 -41 -67 -72 -74 -40 -63 -63 -74 39 71 vhcurveto
            endchar
          </CharString>
          <CharString index="25">
            rmoveto
            57 20 -59 101 rlineto
            -87 hlineto
            endchar
          </CharString>
          <CharString index="26">
            42 14 33 29 40 vvcurveto
            65 -78 40 -72 -72 -78 -41 -65 -41 35 -27 39 -14 vhcurveto
            return
          </CharString>
          <CharString index="27">
            rmoveto
            356 -56 vlineto
            -3 -1 -52 -53 -42 hhcurveto
            -55 vlineto
            32 49 32 17 14 hvcurveto
            -294 -80 -55 210 55 vlineto
            return
          </CharString>
          <CharString index="28">
            rlineto
            5 17 35 8 28 hhcurveto
            30 21 -9 -26 -25 -21 -10 -36 -35 -36 10 9 -17 hvcurveto
            endchar
          </CharString>
          <CharString index="29">
            474 -10 74 -47 -21 25 -21 455 76 -9 -20 228 -26 callsubr
            hintmask 1001011010000000
            -16 callsubr
            hintmask 0101011100000000
            -30 30 -28 35 vhcurveto
            hintmask 0011011001000000
            11 9 1 3 19 hvcurveto
            76 vlineto
            hintmask 1001011100000000
            -20 1 -8 9 22 vvcurveto
            622 -88 -312 -98 callgsubr
            return
          </CharString>
          <CharString index="30">
            175 hmoveto
            -101 callsubr
            return
          </CharString>
          <CharString index="31">
            -105 callsubr
            endchar
          </CharString>
          <CharString index="32">
            332 401 rlineto
            57 -419 -64 325 vlineto
            -334 -401 rlineto
            return
          </CharString>
          <CharString index="33">
            -54 -49 -32 -75 -67 -61 24 46 -61 vhcurveto
            -38 -59 rlineto
            -49 58 88 -27 83 hhcurveto
            return
          </CharString>
          <CharString index="34">
            79 24 78 58 72 hhcurveto
            69 34 -49 -111 57 callgsubr
            return
          </CharString>
          <CharString index="35">
            -10 66 -39 -21 265 53 153 64 return
          </CharString>
          <CharString index="36">
            112 0 79 554 82 hstem
            54 91 470 91 vstem
            44 hmoveto
            289 79 hlineto
            -115 38 -73 128 120 vvcurveto
            133 90 135 145 145 90 -135 -133 -120 -73 -128 -115 -38 vhcurveto
            -79 289 79 -179 vlineto
            104 58 65 105 123 vvcurveto
            184 -140 166 -186 -186 -140 -166 -184 -123 65 -105 104 -58 vhcurveto
            -179 hlineto
            endchar
          </CharString>
          <CharString index="37">
            rmoveto
            86 68 65 81 81 -68 65 -86 -85 -69 -65 -81 -81 69 -65 85 hvcurveto
            48 vmoveto
            -49 -41 44 54 52 40 46 50 48 42 -44 -54 return
          </CharString>
          <CharString index="38">
            76 709 -90 -552 hlineto
            -440 553 rlineto
            -70 -710 90 542 hlineto
            return
          </CharString>
          <CharString index="39">
            175 hmoveto
            710 -90 -710 vlineto
            return
          </CharString>
          <CharString index="40">
            126 -35 93 -121 -92 -84 -48 -73 -41 vhcurveto
            return
          </CharString>
          <CharString index="41">
            0 -53 callgsubr
            return
          </CharString>
          <CharString index="42">
            100 59 54 -59 252 -38 vlineto
            -243 -253 rlineto
            -53 226 -100 vlineto
            2 334 rmoveto
            -180 -171 vlineto
            return
          </CharString>
          <CharString index="43">
            rmoveto
            1 -7 -9 0 -13 hhcurveto
            -66 -5 -63 -48 -36 -72 rrcurveto
            return
          </CharString>
          <CharString index="44">
            56 -40 40 -40 56 189 55 -40 40 -40 56 return
          </CharString>
          <CharString index="45">
            22 46 rlineto
            -37 4 -18 15 24 vvcurveto
            return
          </CharString>
          <CharString index="46">
            -21 710 -20 return
          </CharString>
          <CharString index="47">
            rmoveto
            -77 71 -60 94 51 52 23 35 20 vhcurveto
            -91 -1 -50 -52 -73 hhcurveto
            -48 -42 21 33 -19 hvcurveto
            -34 -37 rlineto
            -44 27 54 -25 60 hhcurveto
            108 70 79 156 112 -70 67 -101 -95 -74 -62 -78 hvcurveto
            168 89 rmoveto
            63 53 -41 -48 -48 -52 -40 -63 -63 -53 40 48 48 52 41 63 hvcurveto
            endchar
          </CharString>
          <CharString index="48">
            rmoveto
            76 -71 60 -95 -50 -52 -22 -36 -20 vhcurveto
            91 1 49 53 74 hhcurveto
            47 43 -22 -32 19 hvcurveto
            33 37 rlineto
            44 -27 -53 25 -60 hhcurveto
            -108 -70 -80 -156 -112 69 -67 101 96 74 62 79 hvcurveto
            -168 -90 rmoveto
            -63 -54 41 49 48 52 40 64 64 52 -40 -49 -48 -52 -41 -63 hvcurveto
            endchar
          </CharString>
          <CharString index="49">
            -10 rmoveto
            138 96 122 149 142 -104 128 -143 -79 -70 -43 -64 -41 hvcurveto
            hintmask 11011100
            98 -78 -735 88 316 vlineto
            -65 39 68 -48 86 hhcurveto
            -27 76 rmoveto
            -71 -66 54 69 -29 hvcurveto
            149 vlineto
            hintmask 11101100
            64 13 82 53 63 hhcurveto
            101 78 -89 -105 -99 -68 -96 -103 hvcurveto
            endchar
          </CharString>
          <CharString index="50">
            73 52 -40 43 -63 9 hvcurveto
            59 12 33 30 return
          </CharString>
          <CharString index="51">
            112 -80 -522 88 315 vlineto
            return
          </CharString>
          <CharString index="52">
            -135 13 callsubr
            13 522 rmoveto
            195 -262 -196 -260 rlineto
            93 hlineto
            143 191 8 15 9 -15 143 -191 rlineto
            93 hlineto
            -196 260 195 262 rlineto
            -93 hlineto
            -142 -192 -9 -16 -8 16 -143 192 rlineto
            endchar
          </CharString>
          <CharString index="53">
            -39 -4 -25 -29 -29 hhcurveto
            endchar
          </CharString>
          <CharString index="54">
            rmoveto
            -307 -391 307 -90 -710 90 323 391 -323 90 710 vlineto
            return
          </CharString>
          <CharString index="55">
            43 26 -42 60 hhcurveto
            endchar
          </CharString>
          <CharString index="56">
            -44 callsubr
            324 -50 callgsubr
            -351 vlineto
            return
          </CharString>
          <CharString index="57">
            rmoveto
            110 -88 -110 vlineto
            return
          </CharString>
          <CharString index="58">
            -47 -10 -37 callgsubr
            return
          </CharString>
          <CharString index="59">
            -29 47 55 -16 61 hhcurveto
            192 143 170 189 96 -40 98 -67 70 hvcurveto
            62 92 rlineto
            -46 -355 rmoveto
            -137 -92 -142 -151 -44 -40 12 21 -34 vhcurveto
            296 436 rlineto
            41 -51 24 -68 -71 vvcurveto
            -487 hmoveto
            return
          </CharString>
          <CharString index="60">
            54 -238 vlineto
            35 17 44 83 27 vhcurveto
            54 17 83 26 84 vvcurveto
            73 -51 51 -100 -99 -57 -50 -18 -14 vhcurveto
            36 -40 rlineto
            23 21 41 31 64 hhcurveto
            64 33 -29 -40 -59 -74 -17 -61 -24 hvcurveto
            -89 -35 -39 -48 -105 vvcurveto
            endchar
          </CharString>
          <CharString index="61">
            88 315 vlineto
            79 23 75 58 69 hhcurveto
            71 39 -53 -107 57 callgsubr
            return
          </CharString>
          <CharString index="62">
            vhcurveto
            hintmask 1110100100000000
            -81 callsubr
            hintmask 1111000010000000
            -46 -17 -44 -32 -52 vvcurveto
            -67 70 -55 95 90 77 49 71 vhcurveto
            -56 6 rmoveto
            -43 -55 -28 -54 -52 -59 26 return
          </CharString>
          <CharString index="63">
            -6 -10 -32 -16 -35 hhcurveto
            -31 -26 17 38 -2 hvcurveto
            return
          </CharString>
          <CharString index="64">
            -21 208 70 432 -20 return
          </CharString>
          <CharString index="65">
            36 27 32 30 vhcurveto
            endchar
          </CharString>
          <CharString index="66">
            54 -12 -5 callgsubr
            return
          </CharString>
          <CharString index="67">
            hmoveto
            255 212 vlineto
            125 84 111 117 112 -90 115 -125 hvcurveto
            -296 -710 hlineto
            90 630 rmoveto
            201 hlineto
            69 60 -63 -84 -81 -49 -67 -74 hvcurveto
            -207 hlineto
            endchar
          </CharString>
          <CharString index="68">
            rmoveto
            -253 181 rlineto
            -74 vlineto
            182 -128 -182 -125 rlineto
            -74 vlineto
            253 174 rlineto
            return
          </CharString>
          <CharString index="69">
            232 -10 -72 callgsubr
            return
          </CharString>
          <CharString index="70">
            100 -5 34 callgsubr
            return
          </CharString>
          <CharString index="71">
            -102 callgsubr
            endchar
          </CharString>
          <CharString index="72">
            320 96 rmoveto
            -27 callgsubr
            return
          </CharString>
          <CharString index="73">
            rmoveto
            -86 -522 76 hlineto
            279 390 rlineto
            -390 86 522 -71 vlineto
            -284 -398 rlineto
            return
          </CharString>
          <CharString index="74">
            80 -396 630 -90 -710 vlineto
            return
          </CharString>
          <CharString index="75">
            121 -82 -522 88 322 vlineto
            return
          </CharString>
          <CharString index="76">
            -13 callsubr
            -20 return
          </CharString>
          <CharString index="77">
            64 -333 vlineto
            10 callgsubr
          </CharString>
          <CharString index="78">
            107 -5 33 callsubr
            return
          </CharString>
          <CharString index="79">
            811 -91 callsubr
            -203 -731 rmoveto
            245 333 75 -333 230 383 80 -473 -710 482 80 vlineto
            endchar
          </CharString>
          <CharString index="80">
            -20 hstem
            73 86 vstem
            210 295 rmoveto
            -51 227 -86 -522 86 229 61 hlineto
            179 -229 rlineto
            97 hlineto
            -219 268 205 254 rlineto
            -98 hlineto
            return
          </CharString>
          <CharString index="81">
            54 callgsubr
            -76 76 -76 104 return
          </CharString>
          <CharString index="82">
            88 vstem
            -55 callgsubr
            return
          </CharString>
          <CharString index="83">
            -2 callsubr
            -75 103 return
          </CharString>
          <CharString index="84">
            -70 callsubr
            -53 -40 -45 -50 hvcurveto
            return
          </CharString>
          <CharString index="85">
            -21 709 -20 21 48 callgsubr
            return
          </CharString>
          <CharString index="86">
            88 vstem
            524 312 rmoveto
            124 -41 95 -124 -83 -76 -46 -75 -41 vhcurveto
            return
          </CharString>
          <CharString index="87">
            126 51 hstemhm
            287 70 -56 56 hintmask 11110000
            190 return
          </CharString>
          <CharString index="88">
            43 -43 111 hstemhm
            return
          </CharString>
          <CharString index="89">
            -218 305 208 216 rlineto
            -97 hlineto
            -268 -271 rlineto
            480 -88 -730 88 161 vlineto
            100 94 180 -255 rlineto
            endchar
          </CharString>
          <CharString index="90">
            -58 17 callgsubr
            return
          </CharString>
          <CharString index="91">
            286 -10 -21 callgsubr
            return
          </CharString>
          <CharString index="92">
            110 127 59 106 45 return
          </CharString>
          <CharString index="93">
            111 -43 43 hstemhm
            return
          </CharString>
          <CharString index="94">
            -21 522 return
          </CharString>
          <CharString index="95">
            2 callgsubr
            -74 hlineto
            -265 -643 rlineto
            -67 602 67 vlineto
            -502 13 rmoveto
            202 526 201 -526 rlineto
            endchar
          </CharString>
          <CharString index="96">
            -285 21 27 callsubr
            return
          </CharString>
          <CharString index="97">
            89 -66 28 -139 33 return
          </CharString>
          <CharString index="98">
            hstemhm
            30 84 282 88 return
          </CharString>
          <CharString index="99">
            rmoveto
            63 hlineto
            239 405 rlineto
            -334 -55 246 hlineto
            endchar
          </CharString>
          <CharString index="100">
            -77 178 rlineto
            -85 -290 60 208 hlineto
            78 -166 rlineto
            49 hlineto
            78 166 rlineto
            -208 60 290 -86 vlineto
            return
          </CharString>
          <CharString index="101">
            184 hlineto
            91 92 52 117 117 -92 56 -90 hvcurveto
            -99 return
          </CharString>
          <CharString index="102">
            -25 40 47 -14 53 hhcurveto
            157 107 125 145 81 -34 75 -57 51 hvcurveto
            45 57 rlineto
            -56 hlineto
            -24 -31 rlineto
            return
          </CharString>
          <CharString index="103">
            630 -21 121 -20 hstem
            return
          </CharString>
          <CharString index="104">
            rmoveto
            1 callsubr
          </CharString>
          <CharString index="105">
            hstemhm
            66 88 283 88 return
          </CharString>
          <CharString index="106">
            -192 -21 165 return
          </CharString>
          <CharString index="107">
            114 -20 hstemhm
            return
          </CharString>
          <CharString index="108">
            -68 callgsubr
            endchar
          </CharString>
          <CharString index="109">
            138 93 140 151 43 39 -12 -21 34 vhcurveto
            -295 -437 rlineto
            -42 51 -23 69 72 vvcurveto
            return
          </CharString>
          <CharString index="110">
            24 -39 -47 14 -52 hhcurveto
            -155 -108 -125 -146 -81 33 -75 56 -50 hvcurveto
            -45 -56 rlineto
            return
          </CharString>
          <CharString index="111">
            hstem
            71 -25 callsubr
            return
          </CharString>
          <CharString index="112">
            -74 callsubr
            endchar
          </CharString>
          <CharString index="113">
            571 hmoveto
            -33 callsubr
            return
          </CharString>
          <CharString index="114">
            -76 callgsubr
            226 -20 hstem
            return
          </CharString>
          <CharString index="115">
            -49 -23 43 -57 hhcurveto
            -44 -26 -22 -25 -16 hvcurveto
            40 -44 rlineto
            13 7 14 13 27 hhcurveto
            return
          </CharString>
          <CharString index="116">
            233 232 rmoveto
            103 6 75 74 99 hhcurveto
            99 75 -73 -104 8 hvcurveto
            endchar
          </CharString>
          <CharString index="117">
            -30 -115 rlineto
            -114 83 114 -30 vlineto
            return
          </CharString>
          <CharString index="118">
            -20 -1 callgsubr
            return
          </CharString>
          <CharString index="119">
            19 -5 rmoveto
            123 7 42 66 36 272 15 113 rcurveline
            158 hlineto
            return
          </CharString>
          <CharString index="120">
            -51 callgsubr
            hstem
            return
          </CharString>
          <CharString index="121">
            -66 233 80 hstem
            518 233 rmoveto
            80 -454 -80 vlineto
            endchar
          </CharString>
          <CharString index="122">
            72 137 137 -94 72 -114 hvcurveto
            return
          </CharString>
          <CharString index="123">
            71 88 277 88 return
          </CharString>
          <CharString index="124">
            58 callgsubr
            hstem
            return
          </CharString>
          <CharString index="125">
            50 178 48 86 52 hstem
            39 52 235 53 vstem
            379 return
          </CharString>
          <CharString index="126">
            -33 -12 -25 hhcurveto
            -36 -17 34 27 hvcurveto
            439 vlineto
            98 -63 70 return
          </CharString>
          <CharString index="127">
            100 -73 84 -109 -109 -73 -84 -100 -97 72 -86 110 return
          </CharString>
          <CharString index="128">
            105 89 55 77 34 hvcurveto
            -76 21 rlineto
            -52 -22 -63 -35 -64 hhcurveto
            return
          </CharString>
          <CharString index="129">
            -86 -446 -169 446 -86 -446 -168 446 -86 return
          </CharString>
          <CharString index="130">
            51 178 48 86 52 hstem
            38 52 235 53 vstem
            378 return
          </CharString>
          <CharString index="131">
            63 hlineto
            239 406 rlineto
            -334 -55 247 hlineto
            endchar
          </CharString>
          <CharString index="132">
            379 69 174 -20 hstemhm
            96 88 return
          </CharString>
          <CharString index="133">
            rmoveto
            50 -39 34 -52 19 vhcurveto
            return
          </CharString>
          <CharString index="134">
            -21 28 callsubr
            return
          </CharString>
          <CharString index="135">
            445 81 -4 -20 return
          </CharString>
          <CharString index="136">
            0 callgsubr
            36 return
          </CharString>
          <CharString index="137">
            -29 hvcurveto
            43 226 rlineto
            280 81 -345 hlineto
            0 -74 return
          </CharString>
          <CharString index="138">
            52 85 49 177 51 hstem
            32 53 235 52 vstem
            32 return
          </CharString>
          <CharString index="139">
            -440 553 rlineto
            -70 -710 90 542 hlineto
            endchar
          </CharString>
          <CharString index="140">
            81 634 -20 return
          </CharString>
          <CharString index="141">
            -21 452 79 return
          </CharString>
          <CharString index="142">
            -56 -44 32 36 hvcurveto
            -53 hlineto
            -74 2 61 -43 89 hhcurveto
            return
          </CharString>
          <CharString index="143">
            -186 78 129 -31 callsubr
            118 110 return
          </CharString>
          <CharString index="144">
            -56 callgsubr
            endchar
          </CharString>
          <CharString index="145">
            -20 117 -19 callsubr
            return
          </CharString>
          <CharString index="146">
            -6 81 558 81 return
          </CharString>
          <CharString index="147">
            319 75 -319 237 379 80 -469 return
          </CharString>
          <CharString index="148">
            -10 48 196 48 146 48 196 48 hstem
            return
          </CharString>
          <CharString index="149">
            -30 30 -28 35 11 9 1 3 19 vhcurveto
            76 vlineto
            return
          </CharString>
          <CharString index="150">
            -109 hhcurveto
            -70 -62 40 62 -29 hvcurveto
            -54 -53 rlineto
            return
          </CharString>
          <CharString index="151">
            -181 rmoveto
            -62 callsubr
            return
          </CharString>
          <CharString index="152">
            159 155 207 206 -159 154 return
          </CharString>
          <CharString index="153">
            112 -73 -112 vlineto
            return
          </CharString>
          <CharString index="154">
            -164 240 -76 76 return
          </CharString>
          <CharString index="155">
            21 -21 194 71 215 71 hstem
            79 80 return
          </CharString>
          <CharString index="156">
            7 callsubr
            85 90 return
          </CharString>
          <CharString index="157">
            55 356 -20 hstem
            129 56 vstem
            185 return
          </CharString>
          <CharString index="158">
            -16 -146 -27 -251 -21 -46 -86 -7 rlinecurve
            return
          </CharString>
          <CharString index="159">
            76 77 49 110 110 -77 53 -75 hvcurveto
            return
          </CharString>
          <CharString index="160">
            48 callgsubr
            420 90 return
          </CharString>
          <CharString index="161">
            51 rmoveto
            72 -332 -72 vlineto
            return
          </CharString>
          <CharString index="162">
            -362 -7 80 657 -20 return
          </CharString>
          <CharString index="163">
            -182 106 97 -21 return
          </CharString>
          <CharString index="164">
            -453 88 453 return
          </CharString>
          <CharString index="165">
            83 289 88 -76 76 -76 104 hintmask 11011010
            return
          </CharString>
          <CharString index="166">
            271 -10 rmoveto
            79 67 39 74 47 hvcurveto
            return
          </CharString>
          <CharString index="167">
            -53 callgsubr
            hstem
            85 90 return
          </CharString>
          <CharString index="168">
            90 vstem
            177 2 callgsubr
            -90 -710 return
          </CharString>
          <CharString index="169">
            137 83 71 45 69 29 vhcurveto
            -176 return
          </CharString>
          <CharString index="170">
            30 -9 -13 19 vhcurveto
            22 65 rlineto
            20 -32 return
          </CharString>
        <CharString name=".notdef">
          -648 endchar
        </CharString>
        <CharString name="A">
          -61 callgsubr
          hstem
          -104 callsubr
          endchar
        </CharString>
        <CharString name="A.sc">
          -60 21 -21 155 70 326 -20 hstem
          99 hmoveto
          70 155 rlineto
          250 hlineto
          70 -155 rlineto
          85 hlineto
          -247 551 rlineto
          -66 hlineto
          -248 -551 rlineto
          386 225 rmoveto
          -212 hlineto
          107 227 rlineto
          endchar
        </CharString>
        <CharString name="AE">
          44 callgsubr
          hstem
          446 95 vstem
          -25 hmoveto
          -39 callgsubr
        </CharString>
        <CharString name="AEacute">
          44 callgsubr
          206 -20 hstem
          446 95 vstem
          635 916 -100 callsubr
          -572 -795 rmoveto
          -39 callgsubr
        </CharString>
        <CharString name="Aacute">
          -61 callgsubr
          226 -20 hstem
          -104 callsubr
          -25 638 -52 callgsubr
        </CharString>
        <CharString name="Abreve">
          -61 callgsubr
          115 -19 callsubr
          231 216 hintmask 11110100
          -104 callsubr
          -128 570 rmoveto
          hintmask 11101100
          -93 callgsubr
          hintmask 11110100
          -54 callsubr
        </CharString>
        <CharString name="Acircumflex">
          -61 callgsubr
          226 -20 hstem
          -104 callsubr
          -213 524 -36 callsubr
        </CharString>
        <CharString name="Adblgrave">
          -61 callgsubr
          228 -20 hstem
          -104 callsubr
          -76 519 -97 callgsubr
        </CharString>
        <CharString name="Adieresis">
          -61 callgsubr
          121 102 hstem
          221 74 88 74 vstem
          -104 callsubr
          -172 533 -20 callgsubr
        </CharString>
        <CharString name="Agrave">
          -61 callgsubr
          227 -20 hstem
          -104 callsubr
          -143 518 -82 callsubr
        </CharString>
        <CharString name="Ainvertedbreve">
          -61 callgsubr
          183 43 hstem
          231 216 vstem
          -104 callsubr
          -128 595 rmoveto
          -95 callgsubr
          -42 callsubr
        </CharString>
        <CharString name="Amacron">
          -61 callgsubr
          150 58 hstem
          -104 callsubr
          18 562 -40 callgsubr
        </CharString>
        <CharString name="Aogonek">
          28 -160 -21 202 -43 callsubr
          hstem
          534 51 vstem
          618 44 callsubr
          29 24 27 58 36 vhcurveto
          -290 710 rlineto
          -76 hlineto
          -291 -710 rlineto
          96 hlineto
          83 208 rlineto
          298 hlineto
          84 -208 rlineto
          40 hlineto
          -53 -35 -24 -35 -34 -43 callgsubr
          -411 459 rmoveto
          132 328 128 -328 rlineto
          endchar
        </CharString>
        <CharString name="Aring">
          -61 callgsubr
          88 31 76 31 hstem
          257 41 81 40 vstem
          -104 callsubr
          -210 569 -85 callgsubr
          endchar
        </CharString>
        <CharString name="Aringacute">
          -61 callgsubr
          96 132 hstem
          257 41 81 40 vstem
          448 918 rmoveto
          -88 hlineto
          -44 -103 rlineto
          -35 -7 -24 -25 -35 vvcurveto
          -27 13 -20 22 -12 vhcurveto
          -282 -689 rlineto
          96 hlineto
          83 208 rlineto
          298 hlineto
          84 -208 rlineto
          96 hlineto
          -282 690 rlineto
          21 11 13 21 26 vvcurveto
          32 -20 24 -32 9 vhcurveto
          -160 -535 rmoveto
          132 328 128 -328 rlineto
          -129 508 rmoveto
          23 18 -15 -23 -22 -20 -16 -21 -23 -17 17 21 23 18 15 22 hvcurveto
          endchar
        </CharString>
        <CharString name="Atilde">
          -61 callgsubr
          123 -41 callsubr
          hintmask 11110100
          -104 callsubr
          -66 535 -87 callsubr
          hintmask 11101000
          -96 callgsubr
          hintmask 11110100
          -52 callsubr
        </CharString>
        <CharString name="B">
          23 0 78 244 73 237 78 hstemhm
          85 90 336 89 -61 91 hintmask 11110100
          630 -66 callgsubr
        </CharString>
        <CharString name="B.sc">
          -64 0 69 177 65 170 70 hstemhm
          79 80 278 79 -55 81 hintmask 11110100
          542 142 rmoveto
          70 -43 52 -68 19 vhcurveto
          hintmask 11111000
          54 22 31 51 54 vvcurveto
          70 -52 71 -84 vhcurveto
          -301 -551 285 hlineto
          hintmask 11110100
          98 80 55 87 hvcurveto
          -81 15 rmoveto
          -47 -43 -41 -54 vhcurveto
          -205 177 211 hlineto
          52 39 -42 -47 hvcurveto
          -109 324 rmoveto
          hintmask 11111000
          49 36 -36 -49 -48 -39 -37 -51 hvcurveto
          -188 170 hlineto
          endchar
        </CharString>
        <CharString name="C">
          47 callgsubr
          hstem
          39 91 vstem
          39 360 -100 callgsubr
          endchar
        </CharString>
        <CharString name="C.sc">
          -54 -5 72 415 72 hstem
          40 81 vstem
          40 280 rmoveto
          -141 117 -144 166 94 108 46 82 39 vhcurveto
          -67 38 rlineto
          -66 -34 -74 -28 -62 hhcurveto
          -119 -87 99 110 100 71 106 133 60 70 -22 -68 35 hvcurveto
          63 42 rlineto
          71 -37 -81 49 -107 hhcurveto
          -183 -105 -141 -133 hvcurveto
          endchar
        </CharString>
        <CharString name="CR">
          -648 endchar
        </CharString>
        <CharString name="Cacute">
          47 callgsubr
          202 -20 hstem
          39 91 vstem
          479 916 -100 callsubr
          -352 -435 -100 callgsubr
          endchar
        </CharString>
        <CharString name="Ccaron">
          47 callgsubr
          0 88 0 callsubr
          39 91 hintmask 10111000
          243 892 -94 callsubr
          -252 -556 rmoveto
          -180 138 -186 195 -15 callsubr
          vhcurveto
          -63 callgsubr
          hvcurveto
          hintmask 11011000
          134 85 143 158 16 callgsubr
          vhcurveto
          71 46 rlineto
          91 -44 -94 64 -126 hhcurveto
          -214 -124 -182 -172 hvcurveto
          endchar
        </CharString>
        <CharString name="Ccedilla">
          31 29 callgsubr
          38 80 558 81 hstem
          36 91 310 46 vstem
          272 -81 callgsubr
          27 43 103 8 111 58 42 98 rlinecurve
          -63 callgsubr
          134 85 143 158 16 callgsubr
          hvcurveto
          71 46 rlineto
          91 -44 -94 64 -126 hhcurveto
          -214 -124 -182 -172 -174 129 -180 185 -11 hvcurveto
          -44 -83 -79 callsubr
        </CharString>
        <CharString name="Ccircumflex">
          47 callgsubr
          202 -20 hstem
          39 91 vstem
          291 802 -102 callgsubr
          -204 -466 -100 callgsubr
          endchar
        </CharString>
        <CharString name="Cdotaccent">
          47 callgsubr
          96 106 hstem
          39 91 206 80 vstem
          39 360 -100 callgsubr
          377 450 -78 callgsubr
        </CharString>
        <CharString name="D">
          68 0 80 550 80 hstem
          85 90 408 91 vstem
          -86 callgsubr
          endchar
        </CharString>
        <CharString name="D.sc">
          -23 0 71 409 71 hstem
          79 80 342 82 vstem
          290 hmoveto
          177 116 109 168 152 -99 122 -194 hvcurveto
          -211 -551 hlineto
          422 277 rmoveto
          -118 -73 -88 -138 vhcurveto
          -131 409 131 hlineto
          135 76 -84 -119 hvcurveto
          endchar
        </CharString>
        <CharString name="Dcaron">
          68 0 80 550 80 0 92 114 48 callgsubr
          408 91 hintmask 10111100
          207 892 -94 callsubr
          76 -916 rmoveto
          -80 callgsubr
          -157 -88 -119 -164 vhcurveto
          -156 hlineto
          hintmask 11011100
          550 156 vlineto
          161 91 -114 -160 hvcurveto
          endchar
        </CharString>
        <CharString name="Dcroat">
          -67 callgsubr
        </CharString>
        <CharString name="Ddotbelow">
          68 -182 106 76 80 550 80 hstem
          85 90 123 80 205 91 vstem
          -86 callgsubr
          -205 -538 -78 callgsubr
        </CharString>
        <CharString name="Delta">
          -30 0 17 callsubr
          347 -12 callsubr
        </CharString>
        <CharString name="E">
          -43 0 60 callsubr
          vstem
          -87 callgsubr
          endchar
        </CharString>
        <CharString name="E.sc">
          -118 0 71 177 66 166 71 hstem
          79 80 vstem
          159 71 rmoveto
          177 282 66 -282 166 324 71 -404 -551 412 71 vlineto
          endchar
        </CharString>
        <CharString name="Eacute">
          -43 -66 callsubr
          206 -20 hstem
          85 90 vstem
          437 916 -100 callsubr
          -174 -715 rmoveto
          245 333 75 -333 230 383 80 -473 -710 482 80 vlineto
          endchar
        </CharString>
        <CharString name="Ebreve">
          -43 -66 callsubr
          95 -19 callsubr
          85 90 51 216 hintmask 11110110
          -87 callgsubr
          -233 768 rmoveto
          hintmask 11101110
          -93 callgsubr
          hintmask 11110110
          -54 callsubr
        </CharString>
        <CharString name="Ecaron">
          -43 0 80 0 245 0 75 0 230 0 80 0 92 114 48 callgsubr
          hintmask 01010111
          201 892 -94 callsubr
          -74 -836 rmoveto
          245 333 vlineto
          hintmask 10101011
          75 -333 230 383 80 -473 -710 482 80 vlineto
          endchar
        </CharString>
        <CharString name="Ecircumflex">
          -43 -66 callsubr
          206 -20 hstem
          85 90 vstem
          249 802 -102 callgsubr
          -26 -746 rmoveto
          245 333 75 -333 230 383 80 -473 -710 482 80 vlineto
          endchar
        </CharString>
        <CharString name="Edblgrave">
          -43 -66 callsubr
          208 -20 hstem
          85 90 vstem
          -87 callgsubr
          -177 717 -97 callgsubr
        </CharString>
        <CharString name="Edieresis">
          -43 -66 callsubr
          101 102 hstem
          85 90 41 74 88 74 vstem
          290 -28 callsubr
        </CharString>
        <CharString name="Edotaccent">
          -43 -66 callsubr
          100 106 hstem
          85 90 119 80 vstem
          -87 callgsubr
          -193 730 -78 callgsubr
        </CharString>
        <CharString name="Edotbelow">
          -43 -182 106 76 60 callsubr
          106 80 vstem
          -87 callgsubr
          -206 -262 -78 callgsubr
        </CharString>
        <CharString name="Egrave">
          -43 -66 callsubr
          207 -20 hstem
          85 90 vstem
          -87 callgsubr
          -248 716 -82 callsubr
        </CharString>
        <CharString name="Einvertedbreve">
          -43 -66 callsubr
          95 -14 callsubr
          85 90 50 216 hintmask 11101110
          -87 callgsubr
          -234 793 rmoveto
          hintmask 11110110
          -95 callgsubr
          hintmask 11101110
          -42 callsubr
        </CharString>
        <CharString name="Emacron">
          -43 -66 callsubr
          130 58 hstem
          85 90 vstem
          -87 callgsubr
          -86 760 -40 callgsubr
        </CharString>
        <CharString name="Eng">
          114 -186 78 129 -22 callsubr
          412 90 hintmask 11101100
          589 15 rmoveto
          -38 vlineto
          -49 -42 -36 -43 -24 -26 6 17 -18 vhcurveto
          -41 -59 rlineto
          -29 32 42 -13 45 hhcurveto
          84 79 68 98 hvcurveto
          729 -90 -548 vlineto
          hintmask 11011100
          -433 549 rlineto
          -69 -710 90 540 hlineto
          endchar
        </CharString>
        <CharString name="Eogonek">
          -43 -160 -21 181 60 callsubr
          259 51 vstem
          175 80 rmoveto
          245 333 75 -333 230 383 80 -473 -710 426 vlineto
          -53 -35 -24 -35 -34 -43 callgsubr
          -62 callsubr
          29 24 27 58 36 vhcurveto
          80 vlineto
          endchar
        </CharString>
        <CharString name="Eth">
          -67 callgsubr
        </CharString>
        <CharString name="Etilde">
          -43 -66 callsubr
          103 -41 callsubr
          85 90 hintmask 11110110
          -87 callgsubr
          -171 733 -87 callsubr
          hintmask 11101010
          -96 callgsubr
          hintmask 11110110
          -52 callsubr
        </CharString>
        <CharString name="Euro">
          147 -6 81 184 52 59 52 211 81 hstem
          79 422 rmoveto
          -22 -52 rlineto
          73 -10 hlineto
          -17 1 -16 2 -16 vhcurveto
          -78 hlineto
          -22 -52 rlineto
          111 hlineto
          -143 40 120 -122 159 hhcurveto
          -15 callsubr
          hvcurveto
          -75 41 rlineto
          -88 -41 -88 -37 -74 hhcurveto
          -109 -88 79 105 -34 hvcurveto
          249 hlineto
          22 52 rlineto
          -283 hlineto
          -2 14 -1 16 15 vvcurveto
          14 299 vlineto
          22 52 rlineto
          -315 hlineto
          111 23 82 100 132 hhcurveto
          16 callgsubr
          hvcurveto
          71 46 rlineto
          91 -44 -94 64 -126 hhcurveto
          -189 -118 -141 -151 -26 hvcurveto
          endchar
        </CharString>
        <CharString name="F">
          -65 21 -21 318 75 237 80 hstem
          85 90 vstem
          175 hmoveto
          318 40 callsubr
          -710 vlineto
          endchar
        </CharString>
        <CharString name="F.sc">
          -137 21 -21 241 67 172 71 hstem
          79 80 vstem
          159 hmoveto
          241 270 67 -270 172 320 71 -400 -551 vlineto
          endchar
        </CharString>
        <CharString name="G">
          -25 callgsubr
          hstemhm
          39 91 303 229 -76 76 hintmask 01111010
          27 callgsubr
          hintmask 10111100
          -229 -68 hlineto
          hintmask 10111010
          -103 callsubr
          endchar
        </CharString>
        <CharString name="G.alt">
          82 -5 81 201 80 277 81 hstem
          40 91 vstem
          381 -5 rmoveto
          181 128 146 167 13 hvcurveto
          6 1 39 4 vvcurveto
          -290 -80 192 hlineto
          -103 -19 -90 -98 -123 hhcurveto
          -150 -93 141 137 139 93 141 150 101 69 -69 -59 35 hvcurveto
          71 57 rlineto
          92 -56 -96 60 -119 hhcurveto
          -201 -138 -172 -185 -186 141 -177 200 hvcurveto
          endchar
        </CharString>
        <CharString name="G.sc">
          -29 -4 72 -47 -21 217 60 206 72 hstemhm
          40 81 250 197 -68 68 hintmask 01111010
          500 hmoveto
          68 277 hlineto
          hintmask 10111100
          -197 -60 hlineto
          hintmask 10111010
          129 -65 hlineto
          -56 -53 -58 -28 -63 hhcurveto
          -116 -89 94 113 108 77 100 120 73 63 -30 -62 34 hvcurveto
          62 44 rlineto
          71 -39 -76 49 -114 hhcurveto
          -162 -119 -128 -149 -144 121 -138 159 68 59 24 51 53 hvcurveto
          endchar
        </CharString>
        <CharString name="Gacute">
          -25 callgsubr
          201 -20 hstemhm
          39 91 303 229 -76 76 hintmask 01111101
          27 callgsubr
          hintmask 10111110
          -229 -68 hlineto
          hintmask 10111101
          -103 callsubr
          hintmask 01111101
          -108 820 -52 callgsubr
        </CharString>
        <CharString name="Gbreve">
          -25 callgsubr
          90 -19 callsubr
          39 91 131 216 -44 229 -76 76 hintmask 0111101101000000
          27 callgsubr
          hintmask 1011101010000000
          -229 -68 hlineto
          hintmask 1011101101000000
          -103 callsubr
          hintmask 0111101101000000
          -217 752 rmoveto
          hintmask 1011011101000000
          -93 callgsubr
          hintmask 1011101101000000
          -54 callsubr
        </CharString>
        <CharString name="Gcircumflex">
          -25 callgsubr
          201 -20 hstemhm
          39 91 303 229 -76 76 hintmask 01111101
          284 802 -102 callgsubr
          350 -826 rmoveto
          76 354 hlineto
          hintmask 10111110
          -229 -68 hlineto
          hintmask 10111101
          -103 callsubr
          endchar
        </CharString>
        <CharString name="Gcommaaccent">
          66 -1 callsubr
          43 26 -21 76 210 0 68 280 81 hstemhm
          39 91 202 78 23 229 -76 76 hintmask 1110111101000000
          380 -88 callsubr
          249 213 rmoveto
          76 354 hlineto
          hintmask 1110111110000000
          -229 -68 hlineto
          hintmask 1111011101000000
          -103 callsubr
          endchar
        </CharString>
        <CharString name="Gdotaccent">
          -25 callgsubr
          95 106 hstemhm
          39 91 199 80 24 229 -76 76 hintmask 0111111010000000
          27 callgsubr
          hintmask 1011111100000000
          -229 -68 hlineto
          hintmask 1011111010000000
          -103 callsubr
          hintmask 0111111010000000
          -177 714 -78 callgsubr
        </CharString>
        <CharString name="H">
          93 21 -21 323 80 307 -20 hstem
          85 90 391 90 vstem
          566 710 -53 callsubr
          endchar
        </CharString>
        <CharString name="H.sc">
          -2 21 -21 246 72 233 -20 hstem
          79 80 328 80 vstem
          487 551 rmoveto
          -233 -328 233 -80 -551 80 246 328 -246 80 551 vlineto
          endchar
        </CharString>
        <CharString name="Hbar">
          103 21 -21 323 80 145 47 115 -20 hstem
          90 90 391 90 vstem
          571 2 callgsubr
          -115 -391 115 -90 -115 -50 -47 50 -548 90 323 391 -323 90 548 50 47 -50 115 vlineto
          -481 -307 rmoveto
          145 391 -145 vlineto
          endchar
        </CharString>
        <CharString name="Hcircumflex">
          93 21 -21 323 80 307 -20 226 -20 hstem
          85 90 391 90 vstem
          288 802 -102 callgsubr
          326 -116 -53 callsubr
          endchar
        </CharString>
        <CharString name="Hdotbelow">
          93 56 callsubr
          323 80 307 -20 hstem
          85 90 155 80 156 90 vstem
          566 710 -53 callsubr
          -246 -892 -78 callgsubr
        </CharString>
        <CharString name="I">
          -388 21 -21 710 -41 callgsubr
          endchar
        </CharString>
        <CharString name="I.sc">
          -410 -9 callgsubr
          79 80 vstem
          159 hmoveto
          551 -80 -551 vlineto
          endchar
        </CharString>
        <CharString name="IJ">
          97 -11 81 -49 -21 710 48 callgsubr
          403 90 hintmask 01111000
          -68 callsubr
          187 33 rmoveto
          hintmask 10111000
          -88 callgsubr
        </CharString>
        <CharString name="Iacute">
          -388 21 -21 710 -20 226 -41 callgsubr
          148 916 -52 callgsubr
        </CharString>
        <CharString name="Ibreve">
          -388 -76 callgsubr
          115 -19 callsubr
          22 216 -153 90 hintmask 11100100
          -68 callsubr
          45 848 rmoveto
          hintmask 11011000
          -93 callgsubr
          hintmask 11101000
          -54 callsubr
        </CharString>
        <CharString name="Icircumflex">
          -388 21 -21 710 -20 226 -41 callgsubr
          -40 802 -36 callsubr
        </CharString>
        <CharString name="Idblgrave">
          -388 -76 callgsubr
          228 -41 callgsubr
          111 797 -97 callgsubr
        </CharString>
        <CharString name="Idieresis">
          -388 -76 callgsubr
          121 102 hstemhm
          12 53 callgsubr
          -68 callsubr
          hintmask 11110100
          1 811 -20 callgsubr
        </CharString>
        <CharString name="Idotaccent">
          -388 -76 callgsubr
          120 106 hstem
          85 90 vstem
          -68 callsubr
          85 810 -78 callgsubr
        </CharString>
        <CharString name="Idotbelow">
          -388 56 callsubr
          710 -41 callgsubr
          82 -182 -78 callgsubr
        </CharString>
        <CharString name="Igrave">
          -388 -76 callgsubr
          227 -41 callgsubr
          30 796 -82 callsubr
        </CharString>
        <CharString name="Iinvertedbreve">
          -388 -76 callgsubr
          115 -14 callsubr
          19 216 -150 90 hintmask 11010100
          -68 callsubr
          42 873 rmoveto
          hintmask 11101000
          -95 callgsubr
          hintmask 11011000
          -42 callsubr
        </CharString>
        <CharString name="Imacron">
          -388 -76 callgsubr
          150 58 hstem
          85 90 vstem
          -68 callsubr
          192 840 -40 callgsubr
        </CharString>
        <CharString name="Iogonek">
          -388 -160 -21 202 -61 callsubr
          hstemhm
          42 51 -8 90 hintmask 11110000
          126 44 callsubr
          hintmask 11101000
          29 24 27 58 36 vhcurveto
          710 -90 -710 34 vlineto
          hintmask 11110000
          -53 -35 -24 -35 -34 -43 callgsubr
          endchar
        </CharString>
        <CharString name="Itilde">
          -388 -76 callgsubr
          123 -41 callsubr
          85 90 hintmask 11101100
          -68 callsubr
          107 813 -87 callsubr
          hintmask 11010100
          -96 callgsubr
          hintmask 11101100
          -52 callsubr
        </CharString>
        <CharString name="J">
          -163 -11 81 640 -20 hstem
          318 90 vstem
          12 33 rmoveto
          -88 callgsubr
        </CharString>
        <CharString name="J.sc">
          -219 -8 71 488 -20 hstem
          277 80 vstem
          18 25 rmoveto
          -22 36 44 -11 52 hhcurveto
          185 22 111 168 hvcurveto
          280 -80 -280 vlineto
          -136 -14 -72 -113 -49 -41 15 13 -21 vhcurveto
          endchar
        </CharString>
        <CharString name="Jcircumflex">
          -163 -11 81 640 -20 226 -20 hstem
          318 90 vstem
          279 802 -102 callgsubr
          -219 -793 rmoveto
          -88 callgsubr
        </CharString>
        <CharString name="K">
          4 21 -22 callsubr
          hintmask 10110000
          175 hmoveto
          -12 callgsubr
          hintmask 11010000
          392 -90 -709 vlineto
          endchar
        </CharString>
        <CharString name="K.sc">
          -76 -9 callgsubr
          79 80 vstem
          159 hmoveto
          168 vlineto
          103 93 218 -261 rlineto
          86 hlineto
          -255 308 242 243 rlineto
          -87 hlineto
          -307 -295 rlineto
          295 -80 -551 vlineto
          endchar
        </CharString>
        <CharString name="Kcommaaccent">
          4 -192 -21 234 -22 callsubr
          120 78 hintmask 11011100
          343 -88 callsubr
          -125 213 rmoveto
          -12 callgsubr
          hintmask 11101100
          392 -90 -709 vlineto
          endchar
        </CharString>
        <CharString name="L">
          -64 0 17 callsubr
          85 90 vstem
          6 callsubr
          endchar
        </CharString>
        <CharString name="L.sc">
          -156 0 71 480 -20 hstem
          79 80 vstem
          476 hmoveto
          71 -317 480 -80 -551 vlineto
          endchar
        </CharString>
        <CharString name="Lacute">
          -64 0 58 callgsubr
          226 -20 hstem
          85 90 vstem
          451 916 -100 callsubr
          208 -795 rmoveto
          -33 callsubr
          endchar
        </CharString>
        <CharString name="Lcaron">
          -64 0 80 650 -20 hstem
          85 90 vstem
          479 730 -100 callsubr
          180 -609 rmoveto
          -33 callsubr
          endchar
        </CharString>
        <CharString name="Lcommaaccent">
          -64 -1 callsubr
          48 0 80 630 48 callgsubr
          117 78 hintmask 11011100
          340 -88 callsubr
          274 213 rmoveto
          hintmask 10111100
          -33 callsubr
          endchar
        </CharString>
        <CharString name="Ldot">
          -64 0 80 263 124 243 -20 hstem
          85 90 191 74 vstem
          6 callsubr
          355 343 rmoveto
          124 -74 -124 vlineto
          endchar
        </CharString>
        <CharString name="Lslash">
          -57 0 17 callsubr
          92 90 vstem
          578 hmoveto
          80 -396 265 vlineto
          167 129 -25 49 -142 -109 rlineto
          296 -90 -365 vlineto
          -82 -62 26 -50 56 43 rlineto
          -276 vlineto
          endchar
        </CharString>
        <CharString name="M">
          226 -28 callgsubr
          85 90 524 90 vstem
          789 -26 callgsubr
        </CharString>
        <CharString name="M.sc">
          111 -9 callgsubr
          79 80 441 80 vstem
          680 hmoveto
          551 -84 vlineto
          -216 -345 -216 345 rlineto
          -85 -551 80 409 hlineto
          198 -311 rlineto
          45 hlineto
          198 311 rlineto
          -409 vlineto
          endchar
        </CharString>
        <CharString name="N">
          122 21 -22 callsubr
          420 90 hintmask 11011000
          63 callgsubr
          hintmask 10111000
          32 callsubr
        </CharString>
        <CharString name="N.sc">
          22 -9 callgsubr
          79 80 352 80 vstem
          524 hmoveto
          67 551 -80 -410 hlineto
          -370 410 rlineto
          -62 -551 80 402 hlineto
          endchar
        </CharString>
        <CharString name="NULL">
          -648 endchar
        </CharString>
        <CharString name="Nacute">
          14 callgsubr
          490 916 -100 callsubr
          207 -795 rmoveto
          -69 callsubr
          endchar
        </CharString>
        <CharString name="Ncaron">
          14 callgsubr
          254 892 -94 callsubr
          307 -916 rmoveto
          -69 callsubr
          endchar
        </CharString>
        <CharString name="Ncommaaccent">
          122 -192 -21 234 -22 callsubr
          170 78 172 90 hintmask 11101110
          393 -88 callsubr
          259 213 rmoveto
          76 709 -90 -552 hlineto
          hintmask 11011110
          32 callsubr
        </CharString>
        <CharString name="Ndotaccent">
          122 -76 callgsubr
          120 106 hstem
          85 90 172 80 168 90 vstem
          427 810 rmoveto
          106 -80 -106 vlineto
          262 -810 rmoveto
          -69 callsubr
          endchar
        </CharString>
        <CharString name="Ntilde">
          122 -76 callgsubr
          123 54 -12 55 6 53 callsubr
          hintmask 11101110
          609 hmoveto
          -69 callsubr
          274 271 -87 callsubr
          hintmask 11010110
          -96 callgsubr
          hintmask 11101110
          -52 callsubr
        </CharString>
        <CharString name="O">
          -37 callsubr
          hstem
          39 91 487 91 vstem
          373 -5 -94 callgsubr
        </CharString>
        <CharString name="O.sc">
          2 -4 72 414 72 hstem
          40 81 407 82 vstem
          325 -4 rmoveto
          164 121 132 146 139 -114 141 -170 -164 -122 -132 -146 -142 115 -138 170 hvcurveto
          -204 279 rmoveto
          102 78 105 126 121 82 -99 -107 -102 -76 -106 -126 -124 -81 100 107 vhcurveto
          endchar
        </CharString>
        <CharString name="OE">
          483 -5 85 -59 -21 322 80 228 80 5 -20 hstemhm
          39 91 487 93 hintmask 10110110
          710 80 rmoveto
          242 321 80 -321 228 375 80 -465 -157 vlineto
          hintmask 10101110
          90 -44 -89 72 -112 hhcurveto
          -192 -144 -171 -189 -182 136 -178 199 109 92 70 92 45 hvcurveto
          hintmask 01110110
          -157 474 vlineto
          hintmask 10110110
          80 vlineto
          -720 -4 9 callgsubr
          -144 -139 -92 -141 -151 hvcurveto
          endchar
        </CharString>
        <CharString name="Oacute">
          -37 callsubr
          201 -20 hstem
          39 91 487 91 vstem
          478 916 -100 callsubr
          -17 -800 -94 callgsubr
        </CharString>
        <CharString name="Obreve">
          -37 callsubr
          90 -19 callsubr
          39 91 137 216 134 91 hintmask 11101110
          373 -5 -107 callsubr
          245 493 rmoveto
          hintmask 11011110
          -93 callgsubr
          hintmask 11101110
          -54 callsubr
        </CharString>
        <CharString name="Ocircumflex">
          -37 callsubr
          201 -20 hstem
          39 91 487 91 vstem
          290 802 -102 callgsubr
          131 -831 -94 callgsubr
        </CharString>
        <CharString name="Odblgrave">
          -37 callsubr
          203 -20 hstem
          39 91 487 91 vstem
          373 -5 -107 callsubr
          296 442 -97 callgsubr
        </CharString>
        <CharString name="Odieresis">
          -37 callsubr
          96 102 hstem
          39 91 127 74 88 74 124 91 vstem
          331 811 -91 callsubr
          -46 -816 -94 callgsubr
        </CharString>
        <CharString name="Odotbelow">
          100 -182 106 71 34 callgsubr
          hstem
          39 91 203 80 204 91 vstem
          373 -5 -107 callsubr
          283 -537 -78 callgsubr
        </CharString>
        <CharString name="Ograve">
          -37 callsubr
          202 -20 hstem
          39 91 487 91 vstem
          373 -5 -107 callsubr
          230 441 -82 callsubr
        </CharString>
        <CharString name="Ohungarumlaut">
          -37 callsubr
          202 -20 hstem
          39 91 487 91 vstem
          396 917 -64 callgsubr
          -75 -801 -94 callgsubr
        </CharString>
        <CharString name="Oinvertedbreve">
          -37 callsubr
          90 -14 callsubr
          39 91 137 216 134 91 hintmask 11011110
          373 -5 -107 callsubr
          245 518 rmoveto
          hintmask 11101110
          -95 callgsubr
          hintmask 11011110
          -42 callsubr
        </CharString>
        <CharString name="Omacron">
          -37 callsubr
          125 58 hstem
          39 91 487 91 vstem
          522 840 rmoveto
          58 -292 -58 vlineto
          143 -845 -94 callgsubr
        </CharString>
        <CharString name="Omega">
          -71 callsubr
        </CharString>
        <CharString name="Oogonek">
          100 -162 -21 179 80 557 82 hstem
          39 91 135 51 301 91 vstem
          349 -183 rmoveto
          -62 callsubr
          29 23 26 55 35 vhcurveto
          181 12 133 164 182 vvcurveto
          178 -134 183 -199 -192 -144 -171 -189 -172 120 -168 181 -18 vhcurveto
          -52 -35 61 callgsubr
          -219 538 rmoveto
          138 93 140 151 144 99 -133 -145 -137 -92 -142 -151 -147 -97 134 145 vhcurveto
          endchar
        </CharString>
        <CharString name="Oslash">
          100 -5 81 -55 -21 633 82 -5 -20 hstemhm
          39 91 487 91 hintmask 10011100
          564 2 callgsubr
          -28 -41 rlineto
          hintmask 01101100
          -6 callgsubr
          hintmask 10011100
          -48 callsubr
          hintmask 10101100
          2 callsubr
          endchar
        </CharString>
        <CharString name="Oslashacute">
          100 -5 81 -55 -21 633 82 -5 -20 226 -20 hstemhm
          39 91 487 91 hintmask 10011110
          564 2 callgsubr
          -28 -41 rlineto
          hintmask 01101110
          -6 callgsubr
          hintmask 10011110
          -48 callsubr
          hintmask 10101110
          2 callsubr
          348 561 -52 callgsubr
        </CharString>
        <CharString name="Otilde">
          -37 callsubr
          98 -41 callsubr
          39 91 487 91 hintmask 11101110
          373 -5 -107 callsubr
          307 458 -87 callsubr
          hintmask 11010110
          -96 callgsubr
          hintmask 11101110
          -52 callsubr
        </CharString>
        <CharString name="P">
          -25 21 62 callgsubr
          330 91 vstem
          175 -40 callsubr
        </CharString>
        <CharString name="P.sc">
          -102 48 callsubr
          276 81 vstem
          159 hmoveto
          194 178 vlineto
          107 72 87 92 87 -77 91 -108 hvcurveto
          -252 -551 hlineto
          80 480 rmoveto
          168 hlineto
          58 50 -45 -62 -61 -41 -47 -62 hvcurveto
          -173 hlineto
          endchar
        </CharString>
        <CharString name="Q">
          98 -5 81 -81 237 -211 -21 634 81 hstemhm
          39 91 487 91 hintmask 00111100
          613 hmoveto
          88 hlineto
          -89 103 rlineto
          60 66 36 90 95 vvcurveto
          178 -134 183 -199 -192 -144 -171 -189 vhcurveto
          hintmask 10011100
          -182 135 -177 199 -1 vhcurveto
          72 65 24 39 53 hvcurveto
          hintmask 00111100
          hintmask 10011100
          -189 18 9 callgsubr
          -145 -67 -22 -67 -39 -52 hvcurveto
          hintmask 01011100
          -54 63 rlineto
          -88 hlineto
          95 -111 rlineto
          hintmask 10011100
          -28 -37 -46 -17 -52 hhcurveto
          endchar
        </CharString>
        <CharString name="Q.sc">
          1 -4 72 -72 191 -166 -21 483 72 hstemhm
          40 81 407 82 hintmask 00111100
          528 hmoveto
          78 hlineto
          -76 82 rlineto
          50 51 30 69 72 vvcurveto
          139 -114 142 -170 -164 -122 -133 -146 vhcurveto
          hintmask 10011100
          -142 115 -138 170 61 55 18 31 45 vhcurveto
          hintmask 00111100
          hintmask 10011100
          -160 23 rmoveto
          -124 -81 100 107 102 78 106 126 121 82 -100 -107 -49 -18 -50 -32 -39 hvcurveto
          hintmask 01011100
          -44 49 rlineto
          -79 hlineto
          80 -87 rlineto
          hintmask 10011100
          -20 -30 -37 -12 -42 hhcurveto
          endchar
        </CharString>
        <CharString name="R">
          9 21 62 callgsubr
          338 91 vstem
          -77 callsubr
          endchar
        </CharString>
        <CharString name="R.sc">
          -72 48 callsubr
          283 81 vstem
          159 hmoveto
          194 157 vlineto
          136 -194 rlineto
          92 hlineto
          -146 210 rlineto
          75 20 50 68 75 vvcurveto
          87 -77 91 -107 vhcurveto
          -260 -551 hlineto
          80 480 rmoveto
          175 hlineto
          59 49 -48 -59 -58 -42 -50 -61 hvcurveto
          -180 hlineto
          endchar
        </CharString>
        <CharString name="Racute">
          -10 callgsubr
          208 -20 hstem
          85 90 338 91 vstem
          422 918 -100 callsubr
          -159 -797 rmoveto
          -101 callsubr
          endchar
        </CharString>
        <CharString name="Rcaron">
          -10 callgsubr
          0 94 114 48 callgsubr
          338 91 hintmask 11011110
          185 894 -94 callsubr
          -58 -918 rmoveto
          -90 callgsubr
          hintmask 11101110
          90 630 rmoveto
          209 hlineto
          69 60 -67 -80 -78 -49 -70 -74 hvcurveto
          -215 hlineto
          endchar
        </CharString>
        <CharString name="Rcommaaccent">
          9 -192 -21 234 62 callgsubr
          115 78 145 91 vstem
          338 -88 callsubr
          -120 213 rmoveto
          -101 callsubr
          endchar
        </CharString>
        <CharString name="Rdblgrave">
          -10 callgsubr
          208 -20 hstem
          85 90 338 91 vstem
          -77 callsubr
          203 462 -97 callgsubr
        </CharString>
        <CharString name="Rdotbelow">
          9 -182 106 97 62 callgsubr
          113 80 145 91 vstem
          -77 callsubr
          193 -517 -78 callgsubr
        </CharString>
        <CharString name="Rinvertedbreve">
          -10 callgsubr
          95 -14 callsubr
          85 90 40 216 82 91 hintmask 11101111
          -77 callsubr
          148 538 rmoveto
          hintmask 11110111
          -95 callgsubr
          hintmask 11101111
          -42 callsubr
        </CharString>
        <CharString name="S">
          28 callgsubr
          hstem
          56 93 331 96 vstem
          544 634 -103 callgsubr
          37 callsubr
        </CharString>
        <CharString name="S.sc">
          -123 -6 72 418 71 hstem
          54 82 269 86 vstem
          464 492 rmoveto
          38 -50 -66 25 -80 hhcurveto
          -122 -92 -57 -106 -89 61 -33 120 -27 hvcurveto
          109 -24 61 -18 -58 vvcurveto
          -51 -49 -26 -80 -91 -77 35 37 -39 vhcurveto
          -38 -68 rlineto
          -49 67 85 -27 91 hhcurveto
          122 95 47 110 100 -78 31 -122 27 hvcurveto
          -105 23 -50 15 54 vvcurveto
          52 41 31 90 70 60 -27 -30 31 vhcurveto
          endchar
        </CharString>
        <CharString name="Sacute">
          28 callgsubr
          215 -20 hstem
          56 93 331 96 vstem
          419 930 -100 callsubr
          213 -175 -103 callgsubr
          37 callsubr
        </CharString>
        <CharString name="Scaron">
          28 callgsubr
          0 101 0 callsubr
          56 93 331 96 hintmask 10111100
          183 906 -94 callsubr
          313 -296 -103 callgsubr
          hintmask 11011100
          37 callsubr
        </CharString>
        <CharString name="Schwa">
          88 -5 81 238 78 240 83 hstem
          27 97 475 97 vstem
          364 -5 rmoveto
          186 146 157 201 202 -146 160 -183 -122 -120 -72 -105 -52 hvcurveto
          85 -39 rlineto
          77 25 84 56 92 hhcurveto
          122 102 -103 -137 14 hvcurveto
          -567 hlineto
          -2 -8 -1 -18 -17 vvcurveto
          -195 151 -159 186 vhcurveto
          2 81 rmoveto
          -128 -106 104 134 -8 hvcurveto
          475 hlineto
          -137 -9 -99 -101 -125 hhcurveto
          endchar
        </CharString>
        <CharString name="Scircumflex">
          28 callgsubr
          215 -20 hstem
          56 93 331 96 vstem
          231 816 -102 callgsubr
          361 -206 -103 callgsubr
          37 callsubr
        </CharString>
        <CharString name="Sdotbelow">
          -39 -182 106 69 81 561 80 hstem
          56 93 115 80 136 96 vstem
          544 634 -103 callgsubr
          -56 callgsubr
          -158 -743 -78 callgsubr
        </CharString>
        <CharString name="T">
          -34 21 -44 callgsubr
          endchar
        </CharString>
        <CharString name="T.sc">
          -111 21 -21 480 71 hstem
          229 80 vstem
          516 551 rmoveto
          -495 -71 208 -480 80 480 207 hlineto
          endchar
        </CharString>
        <CharString name="Tbar">
          -6 21 -21 350 47 233 80 hstem
          276 90 vstem
          611 2 callgsubr
          -580 -80 245 -233 -211 -47 211 -350 90 350 211 47 -211 233 245 hlineto
          endchar
        </CharString>
        <CharString name="Tcaron">
          -34 21 -21 630 80 0 92 0 callsubr
          262 90 hintmask 10111000
          177 892 -94 callsubr
          372 -206 rmoveto
          -580 hlineto
          hintmask 11011000
          -80 245 -630 90 630 245 vlineto
          endchar
        </CharString>
        <CharString name="Tdotbelow">
          -34 -182 106 97 -44 callgsubr
          -252 -812 -78 callgsubr
        </CharString>
        <CharString name="Thorn">
          -44 21 -21 118 64 callgsubr
          137 -20 hstem
          85 90 313 90 vstem
          363 573 rmoveto
          -188 137 -90 -710 90 118 194 hlineto
          125 84 110 118 112 -90 115 -125 hvcurveto
          2 -375 rmoveto
          -190 295 184 hlineto
          70 59 -67 -80 -77 -48 -71 -75 hvcurveto
          endchar
        </CharString>
        <CharString name="U">
          -29 callsubr
          hstem
          75 90 425 90 vstem
          377 76 rmoveto
          -105 callgsubr
          endchar
        </CharString>
        <CharString name="U.sc">
          5 -4 72 483 -20 hstem
          71 80 351 80 vstem
          326 68 rmoveto
          -133 -42 100 104 hvcurveto
          279 -80 -279 vlineto
          -142 66 -134 190 184 71 126 150 vhcurveto
          279 -80 -279 vlineto
          -102 -39 -102 -137 vhcurveto
          endchar
        </CharString>
        <CharString name="Uacute">
          -29 callsubr
          226 -20 hstem
          75 90 425 90 vstem
          481 916 -100 callsubr
          -16 -719 rmoveto
          -105 callgsubr
          endchar
        </CharString>
        <CharString name="Ubreve">
          -29 callsubr
          115 -19 callsubr
          75 90 105 216 104 90 hintmask 11101110
          377 76 rmoveto
          -105 callgsubr
          1 772 rmoveto
          hintmask 11011110
          -93 callgsubr
          hintmask 11101110
          -54 callsubr
        </CharString>
        <CharString name="Ucircumflex">
          -29 callsubr
          226 -20 hstem
          75 90 425 90 vstem
          293 802 -102 callgsubr
          132 -750 rmoveto
          -105 callgsubr
          endchar
        </CharString>
        <CharString name="Udblgrave">
          -29 callsubr
          228 -20 hstem
          75 90 425 90 vstem
          377 76 rmoveto
          -105 callgsubr
          56 721 -97 callgsubr
        </CharString>
        <CharString name="Udieresis">
          -29 callsubr
          121 102 hstem
          75 90 95 74 88 74 94 90 vstem
          334 811 -91 callsubr
          -45 -735 rmoveto
          -105 callgsubr
          endchar
        </CharString>
        <CharString name="Udotbelow">
          107 -182 106 71 33 callsubr
          hstem
          75 90 174 80 171 90 vstem
          377 76 rmoveto
          -105 callgsubr
          42 -258 -78 callgsubr
        </CharString>
        <CharString name="Ugrave">
          -29 callsubr
          227 -20 hstem
          75 90 425 90 vstem
          377 76 rmoveto
          -105 callgsubr
          -14 720 -82 callsubr
        </CharString>
        <CharString name="Uhungarumlaut">
          -29 callsubr
          227 -20 hstem
          75 90 425 90 vstem
          377 76 rmoveto
          -105 callgsubr
          21 841 -64 callgsubr
          endchar
        </CharString>
        <CharString name="Uinvertedbreve">
          -29 callsubr
          115 -14 callsubr
          75 90 104 216 105 90 hintmask 11011110
          377 76 rmoveto
          -105 callgsubr
          797 vmoveto
          hintmask 11101110
          -95 callgsubr
          hintmask 11011110
          -42 callsubr
        </CharString>
        <CharString name="Umacron">
          -29 callsubr
          150 58 hstem
          75 90 425 90 vstem
          377 76 rmoveto
          -105 callgsubr
          147 764 -40 callgsubr
        </CharString>
        <CharString name="Uogonek">
          107 -162 -21 179 80 634 -20 hstem
          75 90 104 51 270 90 vstem
          377 76 rmoveto
          -162 -50 135 140 hvcurveto
          359 -90 -359 vlineto
          -173 69 -165 200 -16 vhcurveto
          -52 -35 -23 12 callgsubr
          29 22 26 55 35 vhcurveto
          204 9 79 160 186 vvcurveto
          359 -90 -359 vlineto
          -136 -48 -139 -165 vhcurveto
          endchar
        </CharString>
        <CharString name="Uring">
          -29 callsubr
          88 31 76 31 hstem
          75 90 131 41 81 40 132 90 vstem
          296 847 -85 callgsubr
          -809 vmoveto
          -105 callgsubr
          endchar
        </CharString>
        <CharString name="Utilde">
          -29 callsubr
          123 -41 callsubr
          75 90 425 90 hintmask 11101110
          377 76 rmoveto
          -105 callgsubr
          63 737 -87 callsubr
          hintmask 11010110
          -96 callgsubr
          hintmask 11101110
          -52 callsubr
        </CharString>
        <CharString name="V">
          32 -28 callgsubr
          10 2 callgsubr
          291 -710 rlineto
          78 hlineto
          290 710 rlineto
          -95 hlineto
          -234 -597 -235 597 rlineto
          endchar
        </CharString>
        <CharString name="V.sc">
          -57 -9 callgsubr
          14 551 rmoveto
          247 -551 rlineto
          69 hlineto
          247 551 rlineto
          -85 hlineto
          -196 -439 -197 439 rlineto
          endchar
        </CharString>
        <CharString name="W">
          401 -28 callgsubr
          468 397 -99 callsubr
          endchar
        </CharString>
        <CharString name="W.alt">
          429 -28 callgsubr
          957 2 callgsubr
          -178 -577 -195 577 rlineto
          -98 hlineto
          -188 -577 -179 577 rlineto
          -101 hlineto
          225 -710 rlineto
          94 hlineto
          199 563 204 -563 rlineto
          94 hlineto
          225 710 rlineto
          endchar
        </CharString>
        <CharString name="W.sc">
          260 -9 callgsubr
          403 305 rmoveto
          -97 -208 -206 454 rlineto
          -87 hlineto
          252 -551 rlineto
          70 hlineto
          119 252 119 -252 rlineto
          69 hlineto
          253 551 rlineto
          -88 hlineto
          -205 -454 -99 208 105 243 rlineto
          -75 hlineto
          -80 -189 -79 189 rlineto
          -75 hlineto
          endchar
        </CharString>
        <CharString name="Wacute">
          401 7 callsubr
          627 916 -100 callsubr
          -71 -398 -99 callsubr
          endchar
        </CharString>
        <CharString name="Wcircumflex">
          401 7 callsubr
          439 802 -102 callgsubr
          77 -429 -99 callsubr
          endchar
        </CharString>
        <CharString name="Wdieresis">
          401 -76 callgsubr
          121 102 hstem
          406 74 88 74 vstem
          480 811 -91 callsubr
          -100 -414 -99 callsubr
          endchar
        </CharString>
        <CharString name="Wgrave">
          401 -76 callgsubr
          227 -20 hstem
          468 397 -99 callsubr
          164 90 -82 callsubr
        </CharString>
        <CharString name="X">
          -11 -28 callgsubr
          3 2 callgsubr
          267 -360 -259 -350 rlineto
          100 hlineto
          208 286 208 -286 rlineto
          99 hlineto
          -259 350 267 360 rlineto
          -99 hlineto
          -216 -296 -216 296 rlineto
          endchar
        </CharString>
        <CharString name="X.sc">
          -88 -9 callgsubr
          10 551 rmoveto
          227 -279 -220 -272 rlineto
          89 hlineto
          174 214 175 -214 rlineto
          88 hlineto
          -220 272 227 279 rlineto
          -89 hlineto
          -181 -222 -181 222 rlineto
          endchar
        </CharString>
        <CharString name="Y">
          7 -28 callgsubr
          282 90 vstem
          -86 callsubr
          endchar
        </CharString>
        <CharString name="Y.sc">
          -81 -9 callgsubr
          243 80 vstem
          15 551 rmoveto
          228 -351 rlineto
          -200 80 199 vlineto
          230 352 rlineto
          -88 hlineto
          -182 -281 -181 281 rlineto
          endchar
        </CharString>
        <CharString name="Yacute">
          7 7 callsubr
          282 90 vstem
          -86 callsubr
          318 206 -52 callgsubr
        </CharString>
        <CharString name="Ycircumflex">
          7 7 callsubr
          282 90 vstem
          -86 callsubr
          130 92 -36 callsubr
        </CharString>
        <CharString name="Ydieresis">
          7 -76 callgsubr
          121 102 hstemhm
          209 53 callgsubr
          -86 callsubr
          hintmask 11110100
          171 101 -20 callgsubr
        </CharString>
        <CharString name="Ygrave">
          7 -76 callgsubr
          227 -20 hstem
          282 90 vstem
          -86 callsubr
          200 86 -82 callsubr
        </CharString>
        <CharString name="Ytilde">
          7 -76 callgsubr
          123 -41 callsubr
          282 90 hintmask 11101100
          -86 callsubr
          277 103 -87 callsubr
          hintmask 11010100
          -96 callgsubr
          hintmask 11101100
          -52 callsubr
        </CharString>
        <CharString name="Z">
          -17 0 80 550 80 hstem
          32 hmoveto
          1 callsubr
        </CharString>
        <CharString name="Z.sc">
          -92 0 71 409 71 hstem
          36 hmoveto
          480 71 -379 hlineto
          379 418 rlineto
          62 -472 -71 378 vlineto
          -386 -418 rlineto
          endchar
        </CharString>
        <CharString name="Zacute">
          -17 0 80 550 80 206 -20 hstem
          434 916 -100 callsubr
          -314 -795 -3 callsubr
        </CharString>
        <CharString name="Zcaron">
          -17 0 80 550 80 0 92 0 callsubr
          hintmask 10110000
          198 892 -94 callsubr
          -214 -916 19 callgsubr
          vlineto
          hintmask 11010000
          -80 449 vlineto
          -458 -560 rlineto
          endchar
        </CharString>
        <CharString name="Zdotaccent">
          -17 0 80 550 80 100 106 hstem
          291 80 vstem
          32 hmoveto
          -68 callgsubr
          339 740 -78 callgsubr
        </CharString>
        <CharString name="Zdotbelow">
          -17 -182 106 76 80 550 80 hstem
          286 80 vstem
          32 hmoveto
          -68 callgsubr
          334 -252 -78 callgsubr
        </CharString>
        <CharString name="a">
          -69 callgsubr
          -9 callsubr
          hintmask 10111100
          -82 callgsubr
          hintmask 01111100
          -106 callgsubr
          hintmask 10111100
          -104 callgsubr
          endchar
        </CharString>
        <CharString name="a.alt">
          -23 56 callgsubr
          hstemhm
          37 91 339 88 hintmask 10111000
          285 -10 rmoveto
          81 64 43 66 37 hvcurveto
          hintmask 01111000
          -99 88 517 -88 -100 vlineto
          67 -37 -69 47 -84 hhcurveto
          -135 -105 -122 -149 hvcurveto
          hintmask 10111000
          -145 102 -125 146 vhcurveto
          182 192 rmoveto
          -66 -29 -57 -50 -76 hhcurveto
          -103 -74 89 104 96 70 100 104 73 64 -53 -72 28 hvcurveto
          endchar
        </CharString>
        <CharString name="a.alt2">
          -99 -10 66 -35 -21 261 53 153 64 -9 callsubr
          hintmask 01111100
          484 hmoveto
          321 vlineto
          126 -77 84 -141 -75 -68 -28 -40 -60 vhcurveto
          29 -57 rlineto
          40 57 55 21 54 hhcurveto
          87 51 -54 -83 hvcurveto
          -42 vlineto
          12 -27 -52 14 -67 hhcurveto
          -108 -112 -51 -110 hvcurveto
          hintmask 10111100
          -92 76 -71 99 76 73 28 61 45 vhcurveto
          hintmask 01111100
          -79 vlineto
          -22 120 rmoveto
          hintmask 10111100
          -44 -31 -64 -20 -54 hhcurveto
          -61 -53 42 62 72 79 29 70 43 47 -8 -17 43 hvcurveto
          -77 vlineto
          -12 -7 -14 -12 -13 vhcurveto
          endchar
        </CharString>
        <CharString name="aacute">
          -69 callgsubr
          199 -20 -9 callsubr
          hintmask 10111110
          -82 callgsubr
          hintmask 01111110
          -106 callgsubr
          hintmask 10111110
          -104 callgsubr
          141 674 -52 callgsubr
        </CharString>
        <CharString name="abreve">
          -69 callgsubr
          88 -19 callsubr
          30 84 44 216 22 88 hintmask 1011101110000000
          -82 callgsubr
          hintmask 0111101110000000
          -106 callgsubr
          hintmask 1011101110000000
          -104 callgsubr
          38 606 rmoveto
          hintmask 1011011110000000
          -93 callgsubr
          hintmask 1011101110000000
          -54 callsubr
        </CharString>
        <CharString name="acircumflex">
          -69 callgsubr
          199 -20 -9 callsubr
          hintmask 10111110
          -82 callgsubr
          hintmask 01111110
          -106 callgsubr
          hintmask 10111110
          -104 callgsubr
          -47 560 -36 callsubr
        </CharString>
        <CharString name="acute">
          -416 -4 callsubr
          194 730 -52 callgsubr
        </CharString>
        <CharString name="adblgrave">
          -69 callgsubr
          199 -20 -9 callsubr
          hintmask 10111110
          -82 callgsubr
          hintmask 01111110
          -106 callgsubr
          hintmask 10111110
          -104 callgsubr
          114 553 -97 callgsubr
        </CharString>
        <CharString name="adieresis">
          -69 callgsubr
          93 102 hstemhm
          30 84 34 74 88 74 12 88 hintmask 1011111110000000
          -82 callgsubr
          hintmask 0111111110000000
          -106 callgsubr
          hintmask 1011111110000000
          -104 callgsubr
          -6 568 -20 callgsubr
        </CharString>
        <CharString name="ae">
          40 callgsubr
          hstemhm
          30 83 709 84 hintmask 11011100
          204 -10 -23 callgsubr
          hintmask 10111100
          -75 callgsubr
          hintmask 11011100
          9 callsubr
        </CharString>
        <CharString name="aeacute">
          40 callgsubr
          199 -20 hstemhm
          30 83 709 84 hintmask 11011110
          548 730 -100 callsubr
          -256 -619 -23 callgsubr
          hintmask 10111110
          -75 callgsubr
          hintmask 11011110
          9 callsubr
        </CharString>
        <CharString name="afii61352">
          509 21 -21 344 61 244 62 -1 53 callsubr
          90 72 220 72 hintmask 11011111
          609 hmoveto
          -69 callsubr
          782 -198 rmoveto
          110 72 86 97 hvcurveto
          hintmask 11101111
          20 callsubr
          vhcurveto
          -110 182 -22 callgsubr
        </CharString>
        <CharString name="agrave">
          -69 callgsubr
          199 -20 -9 callsubr
          hintmask 10111110
          -82 callgsubr
          hintmask 01111110
          -106 callgsubr
          hintmask 10111110
          -104 callgsubr
          23 553 -82 callsubr
        </CharString>
        <CharString name="ainvertedbreve">
          -69 callgsubr
          88 -14 callsubr
          30 84 51 216 15 88 hintmask 1011101110000000
          -82 callgsubr
          hintmask 0111101110000000
          -106 callgsubr
          hintmask 1011011110000000
          -104 callgsubr
          45 631 rmoveto
          hintmask 1011101110000000
          -95 callgsubr
          hintmask 1011011110000000
          -42 callsubr
        </CharString>
        <CharString name="amacron">
          -69 callgsubr
          123 58 -9 callsubr
          hintmask 10111110
          -82 callgsubr
          hintmask 01111110
          -106 callgsubr
          hintmask 10111110
          -104 callgsubr
          184 598 -40 callgsubr
        </CharString>
        <CharString name="ampersand">
          33 -10 70 -39 -21 652 67 hstemhm
          45 85 -34 81 194 81 75 73 hintmask 01101110
          676 hmoveto
          -137 143 38 61 22 76 1 86 rlinecurve
          -73 hlineto
          -63 -15 -58 -25 -48 vhcurveto
          -181 190 rlineto
          81 53 65 53 81 vvcurveto
          89 -78 56 -95 -104 -79 -68 -92 -50 24 -41 65 -73 vhcurveto
          hintmask 10110110
          -74 -50 -66 -63 -94 vvcurveto
          -114 99 -84 131 81 73 32 55 57 vhcurveto
          hintmask 01110110
          74 -77 rlineto
          hintmask 10110110
          -276 60 rmoveto
          -79 -75 46 81 62 44 47 62 45 hvcurveto
          202 -213 rlineto
          -43 -41 -54 -25 -59 hhcurveto
          hintmask 10101110
          -107 501 rmoveto
          50 43 41 59 53 39 -33 -47 -51 -47 -37 -69 -44 vhcurveto
          -63 68 -15 24 29 vvcurveto
          endchar
        </CharString>
        <CharString name="aogonek">
          -94 -160 -21 171 66 205 53 153 64 hstemhm
          30 84 265 51 -34 88 hintmask 11111100
          463 44 callsubr
          29 24 27 58 36 vhcurveto
          76 vlineto
          hintmask 11111010
          -20 1 -8 9 22 vvcurveto
          213 vlineto
          132 -82 78 -136 -69 -67 -23 -45 -67 vhcurveto
          29 -57 rlineto
          40 57 55 21 54 hhcurveto
          87 51 -52 -85 hvcurveto
          -42 vlineto
          16 -40 -55 10 -51 hhcurveto
          -129 -91 -66 -95 -92 76 -71 99 81 75 34 62 47 hvcurveto
          2 -37 3 -24 15 -21 25 -6 rlinecurve
          hintmask 11111100
          -51 -34 61 callgsubr
          -235 237 rmoveto
          -65 -49 45 59 60 61 41 88 hvcurveto
          hintmask 11111010
          45 47 -9 -16 41 hvcurveto
          -77 vlineto
          -12 -7 -15 -12 -12 vhcurveto
          -39 -28 -59 -25 -62 hhcurveto
          endchar
        </CharString>
        <CharString name="apostrophe">
          -105 -4 callsubr
          354 36 callgsubr
          endchar
        </CharString>
        <CharString name="approxequal">
          -213 157 64 -22 22 -22 65 25 64 -22 22 -22 65 hstemhm
          hintmask 10001000
          334 375 rmoveto
          -11 -10 -16 -11 -30 hhcurveto
          hintmask 10000100
          8 callsubr
          hintmask 01010000
          43 26 -42 60 hhcurveto
          45 29 21 25 18 hvcurveto
          -38 -92 rmoveto
          -12 -10 -16 -10 -30 hhcurveto
          hintmask 00110000
          8 callsubr
          hintmask 10010000
          43 26 -42 60 hhcurveto
          45 29 19 22 18 hvcurveto
          endchar
        </CharString>
        <CharString name="aring">
          -69 callgsubr
          61 31 76 31 hstemhm
          30 84 70 41 81 40 50 88 hintmask 1011111111000000
          -82 callgsubr
          hintmask 0111111111000000
          -106 callgsubr
          hintmask 1011111111000000
          -104 callgsubr
          -44 605 -85 callgsubr
          endchar
        </CharString>
        <CharString name="aringacute">
          -69 callgsubr
          61 31 76 31 -31 187 hstemhm
          30 84 70 41 81 40 50 88 hintmask 1011110111100000
          -82 callgsubr
          hintmask 0111110111100000
          -106 callgsubr
          hintmask 1011101111100000
          -104 callgsubr
          141 830 -100 callsubr
          -97 -104 rmoveto
          -42 34 -27 47 48 33 27 42 vhcurveto
          hintmask 1011110111100000
          42 -33 27 -48 -47 -34 -27 -42 vhcurveto
          81 38 rmoveto
          23 18 -15 -23 -22 -20 -16 -21 -23 -17 17 21 23 18 15 22 hvcurveto
          endchar
        </CharString>
        <CharString name="asciicircum">
          -95 324 -21 407 -20 hstem
          115 303 rmoveto
          162 328 159 -328 rlineto
          75 hlineto
          -197 407 rlineto
          -74 hlineto
          -198 -407 rlineto
          endchar
        </CharString>
        <CharString name="asciitilde">
          -116 237 55 1 56 hstem
          65 237 rmoveto
          52 hlineto
          2 15 54 49 vhcurveto
          51 46 -56 68 hhcurveto
          93 29 99 8 hvcurveto
          -52 hlineto
          -5 -17 -47 -52 vhcurveto
          -57 -44 57 -64 hhcurveto
          -87 -30 -96 -16 hvcurveto
          endchar
        </CharString>
        <CharString name="asterisk">
          -319 534 -21 201 -20 hstem
          140 48 vstem
          121 513 rmoveto
          44 67 43 -67 38 25 -45 65 69 22 -13 42 -70 -27 3 74 rlineto
          -51 hlineto
          3 -74 -70 27 -13 -42 69 -22 -44 -65 rlineto
          endchar
        </CharString>
        <CharString name="at">
          192 -146 40 90 44 -26 52 176 47 126 54 106 40 hstemhm
          46 42 140 57 253 56 150 42 hintmask 1101111111000000
          419 603 rmoveto
          -195 -178 -144 -229 -219 164 -157 199 57 58 13 27 54 hvcurveto
          -14 38 rlineto
          -23 -49 -46 -15 -59 hhcurveto
          -187 -135 150 186 193 145 140 184 188 139 -148 -191 -68 -19 -128 -80 -46 -5 45 59 hvcurveto
          119 vlineto
          94 -13 112 -156 -62 -56 -19 -32 -48 vhcurveto
          20 -49 rlineto
          28 37 48 18 53 hhcurveto
          96 25 -61 -88 hvcurveto
          8 -21 -45 15 -57 hhcurveto
          -89 -98 -34 -105 hvcurveto
          hintmask 1011111111000000
          -78 55 -58 97 70 62 31 40 38 vhcurveto
          hintmask 1101111111000000
          -45 5 14 -44 68 hhcurveto
          138 11 181 57 233 -170 148 -197 hvcurveto
          57 -527 rmoveto
          hintmask 1011111111000000
          -12 -25 -35 -10 -32 hhcurveto
          -60 -39 38 50 66 61 22 68 60 46 -19 -3 17 hvcurveto
          -37 vlineto
          -35 -9 -36 -52 -24 vhcurveto
          endchar
        </CharString>
        <CharString name="atilde">
          -69 callgsubr
          96 54 -12 55 6 -20 -9 callsubr
          hintmask 1011101110000000
          -82 callgsubr
          hintmask 0111101110000000
          -106 callgsubr
          hintmask 1011101110000000
          -104 callgsubr
          100 571 -87 callsubr
          hintmask 1011010110000000
          -96 callgsubr
          hintmask 1011101110000000
          -52 callsubr
        </CharString>
        <CharString name="b">
          -25 56 callgsubr
          199 -20 hstemhm
          71 88 337 90 hintmask 10111100
          339 -10 rmoveto
          140 107 122 147 140 -91 132 -143 -85 -64 -45 -68 -44 hvcurveto
          312 -88 vlineto
          hintmask 01111100
          -730 78 98 vlineto
          hintmask 10111100
          -64 38 71 -44 81 hhcurveto
          -22 76 rmoveto
          -63 -82 50 66 -13 hvcurveto
          151 vlineto
          66 31 60 56 75 hhcurveto
          101 70 -94 -102 -100 -74 -93 -105 hvcurveto
          endchar
        </CharString>
        <CharString name="backslash">
          -58 -28 callgsubr
          28 2 callgsubr
          436 -710 rlineto
          98 hlineto
          -435 710 rlineto
          endchar
        </CharString>
        <CharString name="bar">
          -408 -109 -21 905 -20 hstem
          82 76 vstem
          158 -130 rmoveto
          905 -76 -905 vlineto
          endchar
        </CharString>
        <CharString name="braceleft">
          -377 -10 -21 771 -20 hstemhm
          89 80 -80 135 hintmask 11010000
          224 668 rmoveto
          72 -112 vlineto
          -7 -16 -5 -25 hvcurveto
          -260 vlineto
          -20 -14 -37 -28 vhcurveto
          -64 vlineto
          25 -4 17 -26 -29 vvcurveto
          -271 vlineto
          -23 13 -7 10 vhcurveto
          112 72 hlineto
          hintmask 11100000
          -55 255 hlineto
          18 -9 28 -20 18 vhcurveto
          21 19 8 26 19 vvcurveto
          244 vlineto
          endchar
        </CharString>
        <CharString name="braceright">
          -377 -10 -21 771 -20 hstemhm
          47 135 -80 80 hintmask 11010000
          102 668 rmoveto
          -244 vlineto
          -19 8 -26 21 -19 vhcurveto
          -21 -18 -8 -28 -18 vvcurveto
          -255 vlineto
          hintmask 11100000
          -55 -72 112 hlineto
          9 14 7 23 hvcurveto
          271 vlineto
          29 16 26 26 4 vhcurveto
          64 vlineto
          -28 -14 37 20 hvcurveto
          260 vlineto
          25 -17 5 -6 vhcurveto
          -112 -72 hlineto
          endchar
        </CharString>
        <CharString name="bracketleft">
          -378 -19 -21 780 -20 hstemhm
          84 82 -82 140 hintmask 11010000
          224 -40 rmoveto
          72 vlineto
          hintmask 11100000
          -58 636 hlineto
          hintmask 11010000
          58 72 -140 -780 hlineto
          endchar
        </CharString>
        <CharString name="bracketright">
          -378 -19 -21 780 -20 hstemhm
          46 140 -82 82 hintmask 11100000
          186 -40 rmoveto
          780 -140 -72 vlineto
          hintmask 11010000
          58 -636 hlineto
          hintmask 11100000
          -58 -72 hlineto
          endchar
        </CharString>
        <CharString name="breve">
          -352 619 -19 callsubr
          40 216 hintmask 10100000
          148 662 rmoveto
          hintmask 01100000
          -93 callgsubr
          hintmask 10100000
          -54 callsubr
        </CharString>
        <CharString name="brokenbar">
          -406 -109 -21 905 -20 hstem
          83 76 vstem
          83 273 rmoveto
          -403 76 403 vlineto
          -76 502 rmoveto
          -403 76 403 vlineto
          endchar
        </CharString>
        <CharString name="bullet">
          -292 253 188 hstem
          84 188 vstem
          272 347 rmoveto
          51 -42 43 -52 -51 -43 -43 -51 -52 43 -42 51 52 42 42 52 vhcurveto
          endchar
        </CharString>
        <CharString name="c">
          -94 -45 callgsubr
          hstem
          36 90 vstem
          36 262 -98 callsubr
          endchar
        </CharString>
        <CharString name="c_t">
          253 -10 84 -60 -21 462 76 -9 -20 198 44 hstemhm
          36 90 281 42 197 88 hintmask 10011111
          870 96 rmoveto
          -5 -11 -31 -17 -35 hhcurveto
          -31 -26 17 38 -2 hvcurveto
          324 116 69 -116 vlineto
          123 0 99 -166 -105 -56 -58 -84 -43 20 -39 18 -32 vhcurveto
          hintmask 10101111
          27 -39 -42 16 -65 hhcurveto
          -164 -99 -130 -141 -138 104 -132 161 97 94 49 82 33 hvcurveto
          -86 26 rlineto
          -50 -17 -70 -31 -51 hhcurveto
          -98 -77 88 106 99 65 96 105 59 50 -25 -53 30 hvcurveto
          86 27 rlineto
          -16 35 -56 92 67 vvcurveto
          56 29 46 67 vhcurveto
          hintmask 01011111
          101 0 -65 -113 hvcurveto
          -71 -69 71 -351 hlineto
          -75 54 -34 63 57 49 23 10 21 vhcurveto
          endchar
        </CharString>
        <CharString name="cacute">
          -94 -45 callgsubr
          29 callsubr
          90 vstem
          403 730 -100 callsubr
          -279 -347 -98 callsubr
          endchar
        </CharString>
        <CharString name="caron">
          -306 637 -21 114 -20 hstem
          38 706 -94 callsubr
          endchar
        </CharString>
        <CharString name="caron.alt">
          -416 -4 callsubr
          194 730 -52 callgsubr
        </CharString>
        <CharString name="ccaron">
          -94 -45 callgsubr
          0 85 0 callsubr
          36 90 hintmask 10111000
          167 706 -94 callsubr
          -179 -468 rmoveto
          -147 109 -125 157 105 87 55 76 31 vhcurveto
          -86 26 rlineto
          -44 -16 -62 -37 -61 hhcurveto
          -95 -79 86 110 hvcurveto
          hintmask 11011000
          111 76 82 97 58 51 -29 -49 27 vhcurveto
          86 27 rlineto
          77 -38 -79 50 -103 hhcurveto
          -159 -106 -122 -147 hvcurveto
          endchar
        </CharString>
        <CharString name="ccedilla">
          -94 29 callgsubr
          34 75 389 76 hstem
          36 90 243 46 vstem
          204 -81 callgsubr
          25 39 94 8 77 51 29 71 rlinecurve
          -86 26 rlineto
          -44 -16 -62 -37 -61 hhcurveto
          -95 -79 86 110 111 76 82 97 58 51 -29 -49 27 hvcurveto
          86 27 rlineto
          77 -38 -79 50 -103 hhcurveto
          -159 -106 -122 -147 -140 99 -120 145 -11 hvcurveto
          -42 -79 -79 callsubr
        </CharString>
        <CharString name="ccircumflex">
          -94 -45 callgsubr
          29 callsubr
          90 vstem
          215 616 -102 callgsubr
          -131 -378 -98 callsubr
          endchar
        </CharString>
        <CharString name="cdotaccent">
          -94 -45 callgsubr
          93 106 hstem
          36 90 134 80 vstem
          36 262 -98 callsubr
          304 362 -78 callgsubr
        </CharString>
        <CharString name="cedilla">
          -352 29 callgsubr
          64 -20 hstem
          187 46 vstem
          22 -81 callgsubr
          35 55 -39 14 -58 -109 -79 callsubr
        </CharString>
        <CharString name="cent">
          -78 -99 -21 131 -21 462 78 115 -20 hstem
          42 90 144 44 vstem
          320 -120 rmoveto
          110 vlineto
          71 107 44 87 34 hvcurveto
          -86 26 -14 -45 -65 -30 -47 -4 rlinecurve
          384 vlineto
          50 -3 45 -24 27 -48 85 27 rcurveline
          -39 77 -71 46 -97 3 rrcurveto
          115 -44 -115 vlineto
          -146 -16 -88 -121 -135 vvcurveto
          -127 97 -129 137 -11 vhcurveto
          -111 vlineto
          -144 378 rmoveto
          89 53 91 91 11 vhcurveto
          -377 vlineto
          -84 16 -60 81 89 vvcurveto
          endchar
        </CharString>
        <CharString name="circumflex">
          -306 637 -21 114 -20 hstem
          86 616 -36 callsubr
        </CharString>
        <CharString name="colon">
          -447 0 112 294 112 hstem
          64 73 vstem
          137 406 rmoveto
          46 callsubr
          73 -406 rmoveto
          46 callsubr
          endchar
        </CharString>
        <CharString name="colonmonetary">
          -91 -120 186 -55 -21 465 190 -114 -20 hstemhm
          38 90 100 44 60 44 hintmask 10101110
          228 -120 rmoveto
          44 112 hlineto
          hintmask 01101110
          -1 10 11 -1 11 hhcurveto
          9 10 1 1 9 hvcurveto
          hintmask 10101110
          -112 44 119 vlineto
          71 18 56 46 24 58 -86 26 rcurveline
          -44 -16 -62 -37 -61 hhcurveto
          -95 -79 86 110 111 76 82 97 58 51 -29 -49 27 hvcurveto
          86 27 -29 57 -51 43 -67 18 rlinecurve
          123 -44 -116 vlineto
          hintmask 10011110
          2 -10 -9 0 -10 hhcurveto
          -11 -10 -1 -1 -10 hvcurveto
          hintmask 10101110
          116 -44 -124 vlineto
          -117 -31 -73 -106 -122 vvcurveto
          -122 75 -107 115 -33 vhcurveto
          endchar
        </CharString>
        <CharString name="comma">
          -437 -60 -21 193 -20 hstem
          64 83 vstem
          117 -81 33 callgsubr
        </CharString>
        <CharString name="commaaccent">
          -480 -1 callsubr
          -20 hstem
          58 78 vstem
          106 -88 callsubr
          endchar
        </CharString>
        <CharString name="copyright">
          188 -7 38 90 76 317 76 87 38 hstem
          47 40 98 90 473 41 vstem
          416 -7 rmoveto
          214 45 callsubr
          -214 -212 43 callgsubr
          212 hvcurveto
          38 vmoveto
          -189 -140 140 183 184 141 139 188 191 141 -139 -185 -191 -145 -131 -187 hvcurveto
          8 90 rmoveto
          105 75 66 54 22 hvcurveto
          -85 26 rlineto
          -44 -21 -53 -26 -46 hhcurveto
          -67 -79 57 101 79 49 80 95 37 54 -13 -54 25 hvcurveto
          85 27 rlineto
          74 -32 -76 42 -93 hhcurveto
          -158 -76 -120 -115 -139 109 -95 130 hvcurveto
          endchar
        </CharString>
        <CharString name="currency">
          -110 142 -21 33 61 244 62 37 -20 hstem
          87 72 220 72 vstem
          89 558 rmoveto
          -41 -41 71 -72 rlineto
          -21 -30 -11 -38 -40 vvcurveto
          -40 12 -37 21 -31 vhcurveto
          -72 -72 36 -36 73 69 rlineto
          -22 30 38 -14 44 hhcurveto
          44 38 14 22 29 hvcurveto
          74 -69 36 36 -73 72 rlineto
          22 31 12 37 40 vvcurveto
          40 -12 38 -21 30 vhcurveto
          72 72 -41 41 -71 -72 rlineto
          22 -30 -37 13 -42 hhcurveto
          -43 -37 -13 -22 -29 hvcurveto
          -1 -150 -22 callgsubr
        </CharString>
        <CharString name="d">
          -19 -10 76 -49 -21 459 76 199 -26 callsubr
          hintmask 10111010
          -16 callsubr
          hintmask 01111001
          42 callsubr
          hintmask 10111100
          -20 1 -8 9 22 vvcurveto
          622 -88 -312 -98 callgsubr
          endchar
        </CharString>
        <CharString name="d.alt">
          -24 56 callgsubr
          199 54 callgsubr
          hintmask 01111100
          553 hmoveto
          730 -88 -312 vlineto
          63 -41 -66 50 -85 hhcurveto
          -136 -100 -123 -148 hvcurveto
          hintmask 10111100
          -144 104 -126 145 75 66 40 62 38 vhcurveto
          hintmask 01111100
          -92 vlineto
          183 vmoveto
          hintmask 10111100
          -65 -11 -83 -52 -64 hhcurveto
          -101 -78 88 105 99 68 97 102 67 76 -53 -69 24 hvcurveto
          endchar
        </CharString>
        <CharString name="dagger">
          -227 -109 -21 361 80 464 -20 hstem
          169 84 vstem
          253 -130 rmoveto
          361 131 80 -131 464 -84 -464 -132 -80 132 -361 vlineto
          endchar
        </CharString>
        <CharString name="daggerdbl">
          -225 -109 -21 272 80 111 80 362 -20 hstem
          170 84 vstem
          254 -130 rmoveto
          272 131 80 -131 111 131 80 -131 362 -84 -362 -132 -80 132 -111 -132 -80 132 -272 vlineto
          endchar
        </CharString>
        <CharString name="dcaron">
          -19 -10 76 -49 -21 459 76 199 -26 callsubr
          hintmask 10111010
          732 730 -100 callsubr
          -358 -619 -21 callgsubr
          hintmask 01111001
          42 callsubr
          hintmask 10111100
          -20 1 -8 9 22 vvcurveto
          622 -88 -312 -98 callgsubr
          endchar
        </CharString>
        <CharString name="dcroat">
          -19 -10 76 -49 -21 459 76 80 56 63 -26 callsubr
          hintmask 1011110100000000
          -16 callsubr
          hintmask 0111110010000000
          42 callsubr
          hintmask 1011111000000000
          -20 1 -8 9 22 vvcurveto
          503 68 56 -68 63 -88 -63 -110 -56 110 -193 -98 callgsubr
          endchar
        </CharString>
        <CharString name="ddotbelow">
          -19 -182 106 66 76 -49 -21 459 76 199 -20 hstemhm
          37 91 132 80 125 88 -76 76 -76 104 hintmask 1101111010000000
          -16 callsubr
          hintmask 1011111001000000
          42 callsubr
          hintmask 1101111100000000
          -20 1 -8 9 22 vvcurveto
          622 -88 -312 -98 callgsubr
          33 -248 -78 callgsubr
        </CharString>
        <CharString name="degree">
          -376 546 178 hstem
          47 178 vstem
          47 637 rmoveto
          -52 39 -39 50 51 38 38 53 49 -38 38 -51 -50 -39 -38 -49 vhcurveto
          59 28 rmoveto
          8 8 10 4 12 hhcurveto
          11 12 -4 -8 7 hvcurveto
          7 -8 5 -10 -12 vvcurveto
          -11 -5 -11 -7 -7 vhcurveto
          -8 -7 -12 -5 -11 hhcurveto
          -12 -10 5 8 -8 hvcurveto
          -7 7 -5 11 11 vvcurveto
          12 5 10 7 8 vhcurveto
          endchar
        </CharString>
        <CharString name="dieresis">
          -280 624 102 hstem
          66 74 88 74 vstem
          140 624 -20 callgsubr
        </CharString>
        <CharString name="divide">
          -115 66 102 83 72 82 102 hstem
          229 75 vstem
          304 405 rmoveto
          102 -75 -102 vlineto
          75 -339 rmoveto
          102 -75 -102 vlineto
          239 185 rmoveto
          72 -403 -72 vlineto
          endchar
        </CharString>
        <CharString name="dollar">
          -26 -86 -21 100 81 560 80 101 -20 hstem
          62 93 141 33 157 96 vstem
          550 634 rmoveto
          -56 46 -72 30 -87 4 rrcurveto
          101 -44 -101 vlineto
          -134 -8 -95 -73 -128 vvcurveto
          -113 75 -39 144 -35 vhcurveto
          15 -4 rlineto
          -239 vlineto
          -96 8 -83 45 -39 41 -43 -76 rcurveline
          72 -59 88 -34 96 -6 rrcurveto
          -101 44 100 vlineto
          140 3 107 61 134 vvcurveto
          128 -92 42 -148 33 vhcurveto
          -13 3 rlineto
          237 vlineto
          79 -3 69 -35 31 -35 rrcurveto
          -22 -379 rmoveto
          -71 -58 -37 -99 vhcurveto
          232 vlineto
          101 -27 56 -28 -69 vvcurveto
          -331 337 rmoveto
          67 44 43 97 5 vhcurveto
          -230 vlineto
          -97 24 -44 24 67 vvcurveto
          endchar
        </CharString>
        <CharString name="dotaccent">
          -468 624 106 hstem
          50 80 vstem
          130 624 -78 callgsubr
        </CharString>
        <CharString name="dotbelow">
          -468 -182 106 hstem
          50 80 vstem
          130 -182 -78 callgsubr
        </CharString>
        <CharString name="dotlessi">
          21 -21 522 -20 4 callsubr
          endchar
        </CharString>
        <CharString name="dotlessj">
          -186 78 630 -20 hstem
          71 88 vstem
          -3 -186 -95 callsubr
          endchar
        </CharString>
        <CharString name="e">
          -70 callgsubr
          hstem
          36 93 vstem
          302 -10 -97 callsubr
        </CharString>
        <CharString name="eacute">
          -70 callgsubr
          29 callsubr
          93 vstem
          402 730 -100 callsubr
          -12 -619 -97 callsubr
        </CharString>
        <CharString name="ebreve">
          -70 callgsubr
          88 -19 callsubr
          36 93 62 216 hintmask 11110110
          302 -10 -107 callgsubr
          -182 366 rmoveto
          hintmask 11101110
          -93 callgsubr
          hintmask 11110110
          -54 callsubr
        </CharString>
        <CharString name="ecaron">
          -57 -10 66 175 65 0 169 66 85 0 callsubr
          36 93 hintmask 11011100
          166 706 -94 callsubr
          88 -740 rmoveto
          21 callsubr
          -91 -77 72 103 -8 hvcurveto
          433 hlineto
          1 6 1 14 14 vvcurveto
          140 -103 126 -158 -157 -110 -123 -147 -147 109 -124 157 vhcurveto
          -175 306 rmoveto
          hintmask 10111100
          -89 callgsubr
          endchar
        </CharString>
        <CharString name="ecircumflex">
          -70 callgsubr
          29 callsubr
          93 vstem
          214 616 -102 callgsubr
          136 -650 -97 callsubr
        </CharString>
        <CharString name="edblgrave">
          -70 callgsubr
          29 callsubr
          93 vstem
          302 -10 -107 callgsubr
          -119 313 -97 callgsubr
        </CharString>
        <CharString name="edieresis">
          -70 callgsubr
          93 102 hstem
          36 93 52 74 88 74 vstem
          255 624 -91 callsubr
          -41 -634 -97 callsubr
        </CharString>
        <CharString name="edotaccent">
          -70 callgsubr
          93 106 hstem
          36 93 130 80 vstem
          302 -10 -107 callgsubr
          -142 328 -78 callgsubr
        </CharString>
        <CharString name="edotbelow">
          -57 -182 106 66 66 175 65 169 66 hstem
          36 93 136 80 vstem
          302 -10 -107 callgsubr
          -136 -478 -78 callgsubr
        </CharString>
        <CharString name="egrave">
          -70 callgsubr
          29 callsubr
          93 vstem
          302 -10 -107 callgsubr
          -197 313 -82 callsubr
        </CharString>
        <CharString name="eight">
          -83 callsubr
        </CharString>
        <CharString name="eight.denominator">
          -243 -5 55 143 45 115 53 hstemhm
          36 -63 callsubr
          hintmask 1111000010000000
          368 115 rmoveto
          50 -39 34 -52 19 -45 callsubr
          44 44 54 29 56 52 58 -27 -45 vhcurveto
          hintmask 1110011000000000
          -73 callgsubr
          endchar
        </CharString>
        <CharString name="eight.lnum">
          -83 callsubr
        </CharString>
        <CharString name="eight.numerator">
          -243 319 55 143 46 114 53 hstemhm
          36 -63 callsubr
          hintmask 1111000010000000
          368 439 -71 callgsubr
        </CharString>
        <CharString name="eightinferior">
          -243 -85 55 143 45 115 53 hstemhm
          36 -63 callsubr
          hintmask 1111000010000000
          368 35 rmoveto
          50 -39 34 -52 19 -45 callsubr
          44 44 54 29 56 52 58 -27 -45 vhcurveto
          hintmask 1110011000000000
          -73 callgsubr
          endchar
        </CharString>
        <CharString name="eightsuperior">
          -243 399 55 143 46 114 53 hstemhm
          36 -63 callsubr
          hintmask 1111000010000000
          368 519 -71 callgsubr
        </CharString>
        <CharString name="einvertedbreve">
          -70 callgsubr
          88 -14 callsubr
          36 93 66 216 hintmask 11101110
          302 -10 -107 callgsubr
          -178 391 rmoveto
          hintmask 11110110
          -95 callgsubr
          hintmask 11101110
          -42 callsubr
        </CharString>
        <CharString name="ellipsis">
          -145 0 112 hstem
          64 74 77 73 77 74 cntrmask 01110000
          138 55 callgsubr
          224 hmoveto
          46 callsubr
          224 55 callgsubr
          endchar
        </CharString>
        <CharString name="emacron">
          -70 callgsubr
          123 58 hstem
          36 93 vstem
          302 -10 -107 callgsubr
          -36 358 -40 callgsubr
        </CharString>
        <CharString name="emdash">
          263 233 80 hstem
          847 233 rmoveto
          80 -783 -80 vlineto
          endchar
        </CharString>
        <CharString name="emspace">
          272 endchar
        </CharString>
        <CharString name="endash">
          14 callsubr
        </CharString>
        <CharString name="eng">
          -58 -186 78 129 34 callsubr
          -9 11 callsubr
          hintmask 11101100
          362 -186 rmoveto
          85 77 70 99 hvcurveto
          329 vlineto
          -67 callsubr
          hintmask 11011100
          -56 callsubr
          hintmask 11101100
          79 24 78 58 72 hhcurveto
          69 34 -49 -111 hvcurveto
          -315 vlineto
          -49 -41 -36 -43 -24 -26 6 17 -19 vhcurveto
          -41 -59 rlineto
          -29 32 42 -13 46 hhcurveto
          endchar
        </CharString>
        <CharString name="enspace">
          -62 endchar
        </CharString>
        <CharString name="eogonek">
          -57 -165 -21 177 65 175 65 169 66 hstem
          36 93 88 51 vstem
          301 -186 rmoveto
          -62 callsubr
          29 23 27 56 35 vhcurveto
          85 12 69 50 29 66 -76 21 rcurveline
          -52 -22 -63 -35 -64 hhcurveto
          -91 -77 72 103 -8 hvcurveto
          433 hlineto
          1 6 1 14 14 vvcurveto
          140 -103 126 -158 -157 -110 -123 -147 -143 102 -120 149 -7 vhcurveto
          -48 -34 -22 -33 -33 -43 callgsubr
          -174 482 rmoveto
          -89 callgsubr
          endchar
        </CharString>
        <CharString name="equal">
          -209 179 60 74 60 hstem
          372 179 rmoveto
          60 -305 -60 vlineto
          305 134 rmoveto
          60 -305 -60 vlineto
          endchar
        </CharString>
        <CharString name="estimated">
          -49 -10 37 228 40 199 37 hstem
          42 107 314 106 vstem
          305 27 rmoveto
          -62 -56 30 48 -38 hvcurveto
          150 420 vlineto
          152 -108 124 -156 -155 -108 -125 -146 -145 106 -125 157 100 68 36 47 47 vhcurveto
          -26 28 rlineto
          -40 -38 -59 -34 -92 hhcurveto
          467 vmoveto
          63 56 -31 -50 39 hvcurveto
          -118 -314 119 vlineto
          49 38 56 31 62 hhcurveto
          endchar
        </CharString>
        <CharString name="eth">
          -42 -10 76 335 72 257 -20 hstem
          39 90 347 90 vstem
          478 713 rmoveto
          -84 -51 -27 24 -31 23 -35 21 rlinecurve
          -124 hlineto
          60 -34 49 -34 39 -34 -99 -59 rcurveline
          27 -37 107 64 72 -74 31 -75 13 -79 rlinecurve
          63 -36 -74 42 -83 hhcurveto
          -135 -109 -109 -131 -136 117 -107 141 145 124 114 186 99 -36 132 -103 109 hvcurveto
          78 46 rlineto
          -376 -443 rmoveto
          93 77 75 98 95 77 -70 -92 -93 -77 -80 -99 -95 -76 74 93 vhcurveto
          endchar
        </CharString>
        <CharString name="etilde">
          -70 callgsubr
          96 -41 callsubr
          36 93 hintmask 11110110
          302 -10 -107 callgsubr
          -120 331 -87 callsubr
          hintmask 11101010
          -96 callgsubr
          hintmask 11110110
          -52 callsubr
        </CharString>
        <CharString name="exclam">
          -386 0 124 593 -20 hstem
          87 88 vstem
          175 240 rmoveto
          477 -88 -477 vlineto
          88 -240 rmoveto
          124 -88 -124 vlineto
          endchar
        </CharString>
        <CharString name="exclamdown">
          -388 18 -21 593 124 hstem
          86 88 vstem
          86 474 rmoveto
          -477 88 477 vlineto
          -88 240 rmoveto
          -124 88 124 vlineto
          endchar
        </CharString>
        <CharString name="f">
          -305 21 -21 453 69 143 75 hstem
          99 88 vstem
          187 hmoveto
          453 139 69 -139 14 vlineto
          83 32 46 58 26 63 callsubr
          -42 12 -41 hhcurveto
          -98 -62 -79 -128 hvcurveto
          -11 -71 -69 71 -453 vlineto
          endchar
        </CharString>
        <CharString name="f_f">
          -47 24 callgsubr
          hintmask 11011100
          531 664 rmoveto
          38 19 -11 -10 16 hvcurveto
          22 65 rlineto
          9 -21 -31 23 -59 hhcurveto
          -62 -43 -26 -39 -29 hvcurveto
          14 -30 -40 13 -48 hhcurveto
          -107 -55 -84 -92 -2 hvcurveto
          -4 -71 -69 71 57 callsubr
          152 57 callsubr
          157 69 -157 14 vlineto
          62 30 66 74 vhcurveto
          -192 -142 rmoveto
          -152 5 hlineto
          hintmask 11101100
          53 1 24 46 67 hhcurveto
          23 32 -4 -14 21 hvcurveto
          -11 -21 -5 -40 -25 vvcurveto
          endchar
        </CharString>
        <CharString name="f_f_i">
          117 24 callgsubr
          179 88 hintmask 11011110
          99 hmoveto
          88 453 152 -453 20 callgsubr
          32 66 80 47 47 -19 -22 25 vhcurveto
          38 65 rlineto
          23 -36 -59 29 -70 hhcurveto
          -68 -50 -26 -39 -32 hvcurveto
          hintmask 11101110
          14 -30 -40 13 -48 hhcurveto
          -107 -57 -91 -85 hvcurveto
          -4 -71 -69 71 vlineto
          88 69 rmoveto
          5 vlineto
          49 25 50 67 23 32 -4 -14 21 vhcurveto
          -11 -21 -5 -40 -25 vvcurveto
          endchar
        </CharString>
        <CharString name="f_f_l">
          201 0 72 -58 -21 460 69 104 76 -38 38 -38 76 hstemhm
          99 88 155 88 206 88 hintmask 0111001110000000
          748 -7 rmoveto
          49 53 17 2 1 hvcurveto
          -14 72 rlineto
          hintmask 1010011110000000
          -2 19 callsubr
          -127 -69 -52 -23 -42 -32 vhcurveto
          hintmask 1010101110000000
          14 -30 -34 13 -49 hhcurveto
          -105 -64 -85 -91 hvcurveto
          -4 -71 -69 71 57 callsubr
          155 57 callsubr
          102 69 -102 4 vlineto
          75 29 63 76 78 23 -60 -51 vhcurveto
          -460 vlineto
          hintmask 0111001110000000
          -54 42 -46 70 vhcurveto
          -561 529 rmoveto
          7 vlineto
          46 33 51 65 22 26 -3 -14 21 vhcurveto
          -9 -19 -3 -40 -28 vvcurveto
          endchar
        </CharString>
        <CharString name="f_i">
          -123 21 -21 453 69 142 76 hstem
          99 88 179 88 vstem
          99 hmoveto
          20 callgsubr
          33 66 77 49 46 -18 -23 26 vhcurveto
          38 65 rlineto
          23 -33 -57 29 -74 hhcurveto
          -130 -63 -104 -103 hvcurveto
          -11 -71 -69 71 vlineto
          endchar
        </CharString>
        <CharString name="f_l">
          -42 -7 79 -51 -21 453 69 142 76 hstemhm
          99 88 207 88 hintmask 10111100
          594 84 rmoveto
          -1 19 callsubr
          -128 -126 -66 -79 -121 vhcurveto
          -18 -71 -69 71 vlineto
          hintmask 01111100
          57 callsubr
          103 69 -103 9 vlineto
          78 2 30 55 73 hhcurveto
          79 23 -60 -51 hvcurveto
          -460 vlineto
          hintmask 10111100
          -54 41 -46 70 50 52 17 2 2 vhcurveto
          endchar
        </CharString>
        <CharString name="five">
          -100 -149 78 308 77 176 81 hstem
          423 90 vstem
          281 314 rmoveto
          -55 -46 -19 -31 30 callsubr
          -378 -6 -29 vhcurveto
          79 hlineto
          47 32 53 26 57 hhcurveto
          86 67 -62 -89 -93 -69 -64 -91 -72 -66 41 61 -37 hvcurveto
          -55 -48 rlineto
          -80 41 87 -52 101 hhcurveto
          140 111 95 141 134 -101 93 -131 hvcurveto
          endchar
        </CharString>
        <CharString name="five.denominator">
          -268 -5 52 170 -2 callgsubr
          260 -84 callgsubr
          -52 -47 -33 -61 -52 -43 22 33 -25 hvcurveto
          -35 -34 rlineto
          -44 27 58 -29 67 hhcurveto
          94 74 55 80 77 -68 53 -88 hvcurveto
          endchar
        </CharString>
        <CharString name="five.lnum">
          -90 -10 79 308 76 176 81 hstem
          428 90 vstem
          286 453 rmoveto
          -55 -46 -18 -32 30 callsubr
          -377 -6 -29 vhcurveto
          80 hlineto
          46 31 54 27 56 hhcurveto
          86 67 -63 -89 -92 -69 -64 -91 -72 -66 40 62 -37 hvcurveto
          -55 -48 rlineto
          -81 42 86 -52 101 hhcurveto
          141 110 96 141 133 -101 93 -131 hvcurveto
          endchar
        </CharString>
        <CharString name="five.numerator">
          -268 319 53 169 -2 callgsubr
          584 -84 callgsubr
          -52 -47 -32 -61 -52 -43 21 34 -25 hvcurveto
          -17 callgsubr
          endchar
        </CharString>
        <CharString name="fiveeighths">
          251 -5 55 143 45 81 53 -19 53 135 43 91 55 hstemhm
          298 57 177 -63 callsubr
          hintmask 1110111100001000
          864 25 callgsubr
          hintmask 1101111010010000
          -81 callsubr
          hintmask 1110111100001000
          -90 callsubr
          hintmask 1101111001100000
          -73 callgsubr
          -405 289 -84 callgsubr
          hvcurveto
          hintmask 1110111100100000
          -52 -47 -32 -61 -52 -43 21 34 -25 vhcurveto
          -17 callgsubr
          -11 -589 -91 callgsubr
          endchar
        </CharString>
        <CharString name="fiveinferior">
          -268 -85 52 170 -2 callgsubr
          180 -84 callgsubr
          -52 -47 -33 -61 -52 -43 22 33 -25 hvcurveto
          -35 -34 rlineto
          -44 27 58 -29 67 hhcurveto
          94 74 55 80 77 -68 53 -88 hvcurveto
          endchar
        </CharString>
        <CharString name="fivesuperior">
          -268 399 53 169 -2 callgsubr
          664 -84 callgsubr
          -52 -47 -32 -61 -52 -43 21 34 -25 hvcurveto
          -17 callgsubr
          endchar
        </CharString>
        <CharString name="florin">
          -114 -186 78 500 69 204 75 hstem
          224 88 vstem
          150 -186 rmoveto
          84 78 68 97 hvcurveto
          413 139 69 -139 75 vlineto
          83 31 46 58 27 63 callsubr
          -43 12 -40 hhcurveto
          -98 -62 -79 -128 hvcurveto
          -72 -71 -69 71 -415 vlineto
          -49 -41 -36 -43 -24 -26 6 17 -19 vhcurveto
          -41 -59 rlineto
          -29 32 43 -13 45 hhcurveto
          endchar
        </CharString>
        <CharString name="four">
          -90 -127 249 -80 80 449 -20 hstemhm
          354 79 hintmask 10110000
          433 -127 rmoveto
          hintmask 01110000
          169 88 80 -88 449 -60 vlineto
          -349 -451 rlineto
          -78 321 vlineto
          hintmask 10110000
          -169 vlineto
          9 562 rmoveto
          -313 -239 vlineto
          endchar
        </CharString>
        <CharString name="four.denominator">
          -256 21 -21 100 -7 callgsubr
          hmoveto
          -65 callsubr
          endchar
        </CharString>
        <CharString name="four.lnum">
          -71 21 -21 181 80 449 -20 hstem
          370 79 vstem
          449 hmoveto
          181 88 80 -88 449 -61 vlineto
          -361 -450 rlineto
          -79 334 -181 vlineto
          9 575 rmoveto
          -314 -251 vlineto
          endchar
        </CharString>
        <CharString name="four.numerator">
          -256 346 -21 99 -7 callgsubr
          325 -11 callgsubr
        </CharString>
        <CharString name="fourinferior">
          -257 -59 -21 100 -7 callgsubr
          -80 rmoveto
          -65 callsubr
          endchar
        </CharString>
        <CharString name="foursuperior">
          -256 426 -21 99 -7 callgsubr
          405 -11 callgsubr
        </CharString>
        <CharString name="fraction">
          -480 16 -21 720 -20 hstem
          -170 -5 -91 callgsubr
          endchar
        </CharString>
        <CharString name="franc">
          -36 21 -21 127 68 123 75 237 80 hstem
          120 90 vstem
          210 hmoveto
          127 118 68 -118 123 40 callsubr
          -515 -91 -68 91 -127 vlineto
          endchar
        </CharString>
        <CharString name="g">
          -24 -24 callgsubr
          hstemhm
          38 89 338 88 hintmask 11011100
          279 -6 -96 callsubr
          hintmask 11101100
          -92 callsubr
          endchar
        </CharString>
        <CharString name="gacute">
          -25 -24 callgsubr
          228 -20 hstemhm
          37 89 338 88 hintmask 11011110
          278 -6 -96 callsubr
          hintmask 11101110
          -92 callsubr
          107 664 -52 callgsubr
        </CharString>
        <CharString name="gbreve">
          -25 -24 callgsubr
          117 43 -43 111 hstemhm
          37 89 96 216 26 88 hintmask 1101101110000000
          278 -6 -96 callsubr
          hintmask 1110101110000000
          -92 callsubr
          25 596 rmoveto
          hintmask 1110011110000000
          -93 callgsubr
          hintmask 1110101110000000
          -54 callsubr
        </CharString>
        <CharString name="gcircumflex">
          -25 -24 callgsubr
          228 -20 hstemhm
          37 89 338 88 hintmask 11011110
          245 616 -102 callgsubr
          81 -646 -96 callsubr
          hintmask 11101110
          -92 callsubr
          endchar
        </CharString>
        <CharString name="gcommaaccent">
          -25 -223 68 0 149 0 72 39 callgsubr
          29 49 165 -20 hstemhm
          37 89 148 78 112 88 hintmask 1010111111000000
          278 -6 -96 callsubr
          hintmask 0101001111000000
          65 -44 -64 48 -87 hhcurveto
          -143 -99 -124 -147 -139 99 -127 142 hvcurveto
          hintmask 1011001111000000
          27 72 rmoveto
          -100 -79 88 104 97 65 100 106 69 70 -51 -71 28 hvcurveto
          -150 vlineto
          -59 -14 -71 -58 -74 hhcurveto
          -1 679 rmoveto
          -30 -81 rlineto
          hintmask 1010111111000000
          -84 78 84 -25 vlineto
          20 81 rlineto
          endchar
        </CharString>
        <CharString name="gdotaccent">
          -25 -24 callgsubr
          122 106 hstemhm
          37 89 164 80 94 88 hintmask 11011111
          278 -6 -96 callsubr
          hintmask 11101111
          -92 callsubr
          65 558 -78 callgsubr
        </CharString>
        <CharString name="germandbls">
          -95 -6 81 -54 -21 357 80 201 76 hstemhm
          71 84 102 210 -84 84 -40 40 -40 91 hintmask 1011100010000000
          241 -6 rmoveto
          161 5 116 72 137 vvcurveto
          95 -56 79 -95 20 vhcurveto
          hintmask 0111101000000000
          55 15 45 65 71 vvcurveto
          96 -82 65 -107 -120 -87 -81 -116 vhcurveto
          -517 84 503 vlineto
          71 37 64 83 57 51 -31 -67 -62 -44 -41 -64 vhcurveto
          hintmask 1011110000000000
          -18 -80 19 hlineto
          hintmask 1011100100000000
          90 61 -56 -86 -97 -77 -41 -109 -2 hvcurveto
          endchar
        </CharString>
        <CharString name="grave">
          -416 -4 callsubr
          137 609 -82 callsubr
        </CharString>
        <CharString name="greater">
          -138 5 -21 549 -20 hstem
          477 280 rmoveto
          -420 253 rlineto
          -94 vlineto
          292 -180 -292 -177 rlineto
          -98 vlineto
          420 250 rlineto
          endchar
        </CharString>
        <CharString name="greaterequal">
          -197 51 72 430 -20 hstem
          394 54 callsubr
          333 339 rmoveto
          -330 163 rlineto
          -84 vlineto
          202 -100 -202 -97 rlineto
          -88 vlineto
          330 160 rlineto
          endchar
        </CharString>
        <CharString name="guillemotleft">
          -52 81 -21 401 -20 hstem
          40 234 -38 callgsubr
          242 -46 -38 callgsubr
          endchar
        </CharString>
        <CharString name="guillemotright">
          -52 81 -21 401 -20 hstem
          556 280 -39 callsubr
          -242 46 -39 callsubr
          endchar
        </CharString>
        <CharString name="guilsinglleft">
          -294 81 -21 401 -20 hstem
          40 234 -38 callgsubr
          endchar
        </CharString>
        <CharString name="guilsinglright">
          -294 81 -21 401 -20 hstem
          314 280 -39 callsubr
          endchar
        </CharString>
        <CharString name="h">
          -17 callsubr
          0 callgsubr
          71 88 277 -21 callsubr
          320 -88 -730 -46 callsubr
          endchar
        </CharString>
        <CharString name="hbar">
          -17 callsubr
          80 56 63 -20 hstem
          71 88 277 -21 callsubr
          201 122 56 -122 63 -88 -63 -56 -56 56 -611 -46 callsubr
          endchar
        </CharString>
        <CharString name="hcircumflex">
          -17 callsubr
          198 -20 21 11 callsubr
          hintmask 11101100
          272 616 rmoveto
          79 62 78 -62 45 24 -94 89 rlineto
          -59 hlineto
          -94 -89 rlineto
          297 -328 rmoveto
          124 -41 95 -124 -83 -76 -46 -75 -41 vhcurveto
          hintmask 11011100
          320 -88 -730 -46 callsubr
          endchar
        </CharString>
        <CharString name="hdotbelow">
          -58 56 callsubr
          452 79 0 callgsubr
          71 88 102 80 95 -21 callsubr
          320 -88 -730 -46 callsubr
          -183 -182 -78 callgsubr
        </CharString>
        <CharString name="hungarumlaut">
          -310 -4 callsubr
          170 730 -64 callgsubr
          endchar
        </CharString>
        <CharString name="hyphen">
          -225 233 80 hstem
          359 233 rmoveto
          80 -295 -80 vlineto
          endchar
        </CharString>
        <CharString name="i">
          21 -13 callgsubr
          endchar
        </CharString>
        <CharString name="iacute">
          -32 callgsubr
          71 88 vstem
          218 730 -100 callsubr
          29 -609 rmoveto
          522 -88 -522 vlineto
          endchar
        </CharString>
        <CharString name="ibreve">
          21 -21 522 38 callsubr
          7 216 -152 88 hintmask 11100100
          -55 callgsubr
          44 662 rmoveto
          hintmask 11011000
          -93 callgsubr
          hintmask 11101000
          -54 callsubr
        </CharString>
        <CharString name="icircumflex">
          -32 callgsubr
          71 88 vstem
          30 616 -102 callgsubr
          177 -640 rmoveto
          522 -88 -522 vlineto
          endchar
        </CharString>
        <CharString name="idblgrave">
          21 -21 522 -20 228 -20 4 callsubr
          113 609 -97 callgsubr
        </CharString>
        <CharString name="idieresis">
          -51 callgsubr
          122 102 hstem
          -3 74 0 88 0 74 cntrmask 00011100
          71 624 -91 callsubr
          -624 vmoveto
          522 -88 -522 vlineto
          endchar
        </CharString>
        <CharString name="idotbelow">
          -182 106 97 -13 callgsubr
          83 -802 -78 callgsubr
        </CharString>
        <CharString name="igrave">
          21 -21 522 -20 228 -20 4 callsubr
          29 609 -82 callsubr
        </CharString>
        <CharString name="iinvertedbreve">
          -51 callgsubr
          117 -14 callsubr
          8 216 -153 88 hintmask 11010100
          -55 callgsubr
          45 687 rmoveto
          hintmask 11101000
          -95 callgsubr
          hintmask 11011000
          -42 callsubr
        </CharString>
        <CharString name="ij">
          -181 36 callsubr
          hstem
          71 88 149 -25 callsubr
          88 620 -50 callsubr
          163 -806 -34 callgsubr
        </CharString>
        <CharString name="imacron">
          -51 callgsubr
          152 58 4 callsubr
          191 654 -40 callgsubr
        </CharString>
        <CharString name="infinity">
          38 186 70 190 71 hstem
          43 70 459 70 vstem
          203 517 rmoveto
          -91 -69 -74 -91 -91 79 -75 81 78 37 38 45 27 hvcurveto
          -45 28 37 -38 72 hhcurveto
          91 69 74 91 91 -62 75 -97 -76 -35 -42 -50 -29 hvcurveto
          50 -29 -36 42 -75 hhcurveto
          -261 vmoveto
          -43 -47 28 68 67 47 27 43 58 28 -44 -52 26 hvcurveto
          -51 -26 -29 -43 -57 hhcurveto
          280 hmoveto
          -56 -29 41 49 -25 hvcurveto
          54 24 26 46 60 hhcurveto
          43 46 -27 -67 -68 -46 -28 -43 hvcurveto
          endchar
        </CharString>
        <CharString name="integral">
          -332 -167 70 847 70 hstem
          139 -35 rmoveto
          -38 2 -24 -24 -34 hhcurveto
          -15 -21 5 7 -18 hvcurveto
          -21 -61 rlineto
          -12 30 44 -9 31 hhcurveto
          69 40 41 69 -4 hvcurveto
          -41 745 rlineto
          39 -2 24 23 34 hhcurveto
          15 22 -5 -7 18 hvcurveto
          21 61 rlineto
          12 -30 -45 9 -31 hhcurveto
          -70 -39 -48 -62 3 hvcurveto
          endchar
        </CharString>
        <CharString name="iogonek">
          -160 -21 202 -13 callsubr
          98 0 110 hstemhm
          26 51 -6 88 hintmask 11101000
          110 44 callsubr
          hintmask 11100100
          29 24 27 58 36 vhcurveto
          522 -88 -522 32 vlineto
          hintmask 11011000
          -53 -35 -24 -35 -34 -43 callgsubr
          hintmask 11010100
          49 801 -42 callgsubr
        </CharString>
        <CharString name="itilde">
          -51 callgsubr
          125 -41 callsubr
          71 88 hintmask 11101100
          -55 callgsubr
          106 23 callgsubr
          hintmask 11010100
          -96 callgsubr
          hintmask 11101100
          -52 callsubr
        </CharString>
        <CharString name="j">
          -411 50 callgsubr
          78 88 vstem
          4 -186 -34 callgsubr
        </CharString>
        <CharString name="j.alt">
          -192 -21 833 102 hstem
          71 88 vstem
          71 -213 rmoveto
          88 730 -88 hlineto
          103 vmoveto
          88 102 -88 hlineto
          endchar
        </CharString>
        <CharString name="jcircumflex">
          -186 78 630 -20 228 -20 hstem
          71 88 vstem
          -3 -186 -95 callsubr
          33 802 -36 callsubr
        </CharString>
        <CharString name="k">
          -109 21 -21 730 -20 hstem
          71 88 vstem
          534 hmoveto
          -18 callsubr
        </CharString>
        <CharString name="kcommaaccent">
          -109 -192 -21 234 -21 730 -20 hstem
          71 88 79 78 vstem
          286 -88 callsubr
          291 213 rmoveto
          -18 callsubr
        </CharString>
        <CharString name="kgreenlandic">
          -109 21 -21 521 -20 21 -20 hstemhm
          71 88 hintmask 11010000
          534 hmoveto
          -218 305 208 216 rlineto
          -97 hlineto
          -268 -271 rlineto
          hintmask 10110000
          272 -88 -522 88 161 vlineto
          100 94 180 -255 rlineto
          endchar
        </CharString>
        <CharString name="l">
          55 callsubr
          hstem
          73 88 -16 callgsubr
          endchar
        </CharString>
        <CharString name="l.alt">
          -408 21 -21 730 -20 hstem
          76 88 vstem
          76 hmoveto
          88 730 -88 hlineto
          endchar
        </CharString>
        <CharString name="lacute">
          55 callsubr
          181 -20 hstem
          73 88 vstem
          214 891 -100 callsubr
          -53 -667 -83 callgsubr
          595 -88 vlineto
          endchar
        </CharString>
        <CharString name="lcaron">
          55 callsubr
          hstem
          73 88 vstem
          351 730 -100 callsubr
          -190 -506 -83 callgsubr
          595 -88 vlineto
          endchar
        </CharString>
        <CharString name="lcommaaccent">
          -362 -1 callsubr
          41 0 80 657 -20 hstemhm
          73 88 -24 78 hintmask 11010100
          185 -88 callsubr
          hintmask 10111000
          -69 316 -83 callgsubr
          595 -88 vlineto
          endchar
        </CharString>
        <CharString name="ldot">
          -309 -7 80 196 124 337 -20 hstem
          73 88 88 74 -16 callgsubr
          250 -461 rmoveto
          124 -74 -124 vlineto
          endchar
        </CharString>
        <CharString name="less">
          -138 5 -21 549 -20 hstem
          33 234 rmoveto
          420 -250 rlineto
          98 vlineto
          -292 177 292 180 rlineto
          94 vlineto
          -420 -253 rlineto
          endchar
        </CharString>
        <CharString name="lessequal">
          -197 51 72 430 -20 hstem
          389 54 callsubr
          -1 293 rmoveto
          330 -160 rlineto
          88 vlineto
          -202 97 202 100 rlineto
          84 vlineto
          -330 -163 rlineto
          endchar
        </CharString>
        <CharString name="lira">
          -148 -15 76 -51 69 162 52 59 52 238 73 hstemhm
          75 81 hintmask 01111100
          51 352 rmoveto
          98 hlineto
          8 -19 7 -19 3 -21 rrcurveto
          -116 -52 118 hlineto
          -6 -58 -35 -54 -77 -73 22 -64 rcurveline
          -36 callgsubr
          63 68 28 49 5 55 rrcurveto
          155 52 -155 hlineto
          -3 21 -5 19 -7 19 rrcurveto
          170 52 -194 hlineto
          -24 46 -26 40 45 3 callgsubr
          -51 24 -43 24 -44 hvcurveto
          -72 hlineto
          endchar
        </CharString>
        <CharString name="logicalnot">
          -57 141 -21 175 80 hstem
          445 76 vstem
          67 375 rmoveto
          -80 378 -175 76 255 vlineto
          endchar
        </CharString>
        <CharString name="lozenge">
          -126 21 -21 730 -20 hstem
          214 730 rmoveto
          -186 -364 186 -366 rlineto
          94 hlineto
          186 366 -186 364 rlineto
          -39 -665 rmoveto
          -154 310 145 287 155 -308 rlineto
          endchar
        </CharString>
        <CharString name="lslash">
          -340 -7 80 657 -20 hstem
          94 88 vstem
          94 103 -83 callgsubr
          255 vlineto
          115 83 -27 49 -88 -64 rlineto
          272 -88 -336 vlineto
          -86 -62 26 -49 60 43 rlineto
          endchar
        </CharString>
        <CharString name="m">
          276 17 callgsubr
          -9 -20 hstemhm
          71 88 261 88 262 88 hintmask 11011100
          858 312 rmoveto
          125 -38 94 -120 -85 -68 -44 -83 -46 vhcurveto
          74 -12 -53 53 -87 hhcurveto
          -85 -71 -44 -77 -42 hvcurveto
          hintmask 10111100
          -56 callsubr
          hintmask 11011100
          82 24 63 55 70 hhcurveto
          69 35 -49 -111 hvcurveto
          -292 88 314 vlineto
          81 24 62 57 71 hhcurveto
          69 36 -51 -109 57 callgsubr
          endchar
        </CharString>
        <CharString name="macron">
          -245 654 58 hstem
          348 654 -40 callgsubr
        </CharString>
        <CharString name="minus">
          -111 269 72 hstem
          470 269 rmoveto
          72 -403 -72 vlineto
          endchar
        </CharString>
        <CharString name="mu">
          -20 45 callgsubr
          78 58 callsubr
          78 -57 callgsubr
        </CharString>
        <CharString name="multiply">
          -184 123 -21 341 -20 hstem
          288 273 rmoveto
          113 114 -55 56 -114 -114 -113 113 -56 -55 113 -114 -115 -115 55 -56 116 116 116 -116 56 55 rlineto
          endchar
        </CharString>
        <CharString name="n">
          -17 callsubr
          -9 11 callsubr
          hintmask 11011000
          524 312 rmoveto
          -67 callsubr
          hintmask 10111000
          -56 callsubr
          hintmask 11011000
          -73 callsubr
          endchar
        </CharString>
        <CharString name="nacute">
          -17 callsubr
          -9 -20 228 11 callsubr
          hintmask 11011100
          406 730 -100 callsubr
          206 -297 rmoveto
          -67 callsubr
          hintmask 10111100
          -56 callsubr
          hintmask 11011100
          -73 callsubr
          endchar
        </CharString>
        <CharString name="napostrophe">
          -17 callsubr
          -9 -20 228 11 callsubr
          hintmask 11011100
          137 36 callgsubr
          476 -297 rmoveto
          -67 callsubr
          hintmask 10111100
          -56 callsubr
          hintmask 11011100
          -73 callsubr
          endchar
        </CharString>
        <CharString name="ncaron">
          -17 callsubr
          -9 -20 29 85 114 11 callsubr
          hintmask 10111110
          170 706 -94 callsubr
          306 -418 rmoveto
          -67 callsubr
          -56 callsubr
          hintmask 11001110
          -73 callsubr
          endchar
        </CharString>
        <CharString name="ncommaaccent">
          -58 -192 -21 234 34 callsubr
          -9 -20 hstemhm
          71 88 92 78 107 88 hintmask 11101110
          299 -88 callsubr
          268 525 rmoveto
          -67 callsubr
          hintmask 11011110
          -56 callsubr
          hintmask 11101110
          -73 callsubr
          endchar
        </CharString>
        <CharString name="ndotaccent">
          -17 callsubr
          -9 -20 122 106 hstemhm
          71 88 104 80 93 88 hintmask 11011110
          343 624 rmoveto
          106 -80 -106 vlineto
          261 -312 rmoveto
          -67 callsubr
          hintmask 10111110
          -56 callsubr
          hintmask 11011110
          -73 callsubr
          endchar
        </CharString>
        <CharString name="nine">
          -59 -154 77 164 71 337 76 hstem
          36 84 344 83 vstem
          36 326 rmoveto
          -134 108 -105 62 callsubr
          -2 -71 -102 43 callsubr
          -79 43 79 -47 92 hhcurveto
          160 106 139 280 191 -104 115 -153 -143 -111 -109 -136 hvcurveto
          253 169 rmoveto
          92 77 -77 -92 -92 -76 -76 -93 -92 -77 76 92 93 77 76 92 hvcurveto
          endchar
        </CharString>
        <CharString name="nine.denominator">
          -237 -5 31 callsubr
          269 -60 callsubr
        </CharString>
        <CharString name="nine.lnum">
          -42 -10 78 163 72 337 75 hstem
          44 85 343 83 vstem
          44 470 rmoveto
          -133 108 -106 62 callsubr
          -1 -72 -101 43 callsubr
          -80 43 79 -47 92 hhcurveto
          160 106 140 280 191 -104 114 -153 -143 -111 -108 -137 hvcurveto
          253 170 rmoveto
          92 78 -78 -92 -91 -77 -76 -92 -92 -77 76 92 92 76 77 92 hvcurveto
          endchar
        </CharString>
        <CharString name="nine.numerator">
          -239 315 30 callgsubr
          589 -60 callgsubr
        </CharString>
        <CharString name="nineinferior">
          -237 -85 31 callsubr
          189 -60 callsubr
        </CharString>
        <CharString name="ninesuperior">
          -239 395 30 callgsubr
          669 -60 callgsubr
        </CharString>
        <CharString name="notequal">
          -167 78 -21 122 60 74 60 122 -20 hstem
          88 313 rmoveto
          148 hlineto
          -41 -74 rlineto
          -107 -60 74 hlineto
          -54 -100 38 -22 66 122 rlineto
          181 60 -148 hlineto
          41 74 rlineto
          107 60 -75 hlineto
          55 100 -38 22 -67 -122 rlineto
          -180 hlineto
          endchar
        </CharString>
        <CharString name="ntilde">
          -17 callsubr
          -9 -20 125 54 -12 55 6 11 callsubr
          hintmask 11010111
          524 312 rmoveto
          -67 callsubr
          hintmask 10110111
          -56 callsubr
          hintmask 11010111
          -73 callsubr
          -159 23 callgsubr
          hintmask 11001011
          -96 callgsubr
          hintmask 11010111
          -52 callsubr
        </CharString>
        <CharString name="numbersign">
          44 21 -21 201 68 178 64 0 callgsubr
          655 511 rmoveto
          -118 49 callgsubr
          -168 49 callgsubr
          -144 -64 128 hlineto
          -43 -178 rlineto
          -129 -68 113 52 callgsubr
          168 52 callgsubr
          149 68 -133 hlineto
          43 178 rlineto
          134 hlineto
          -417 -178 rmoveto
          43 178 rlineto
          168 hlineto
          -43 -178 rlineto
          endchar
        </CharString>
        <CharString name="o">
          -49 -45 callgsubr
          hstem
          36 90 347 -79 callgsubr
          endchar
        </CharString>
        <CharString name="oacute">
          -49 -45 callgsubr
          29 callsubr
          90 347 90 vstem
          402 730 -100 callsubr
          -15 -619 -106 callsubr
          endchar
        </CharString>
        <CharString name="obreve">
          -49 -45 callgsubr
          88 -19 callsubr
          36 90 65 216 66 90 hintmask 11101110
          -102 callsubr
          173 403 rmoveto
          hintmask 11011110
          -93 callgsubr
          hintmask 11101110
          -54 callsubr
        </CharString>
        <CharString name="ocircumflex">
          -49 -45 callgsubr
          29 callsubr
          90 347 90 vstem
          214 616 -102 callgsubr
          133 -650 -106 callsubr
          endchar
        </CharString>
        <CharString name="odblgrave">
          -65 callgsubr
          229 350 -97 callgsubr
        </CharString>
        <CharString name="odieresis">
          -49 -45 callgsubr
          93 102 hstem
          36 90 55 74 88 74 56 90 vstem
          255 624 -91 callsubr
          -44 -634 -106 callsubr
          endchar
        </CharString>
        <CharString name="odotbelow">
          -49 -182 106 66 -31 callgsubr
          hstem
          36 90 135 80 132 -79 callgsubr
          215 -441 -78 callgsubr
        </CharString>
        <CharString name="oe">
          380 -10 65 176 57 167 76 hstem
          36 90 347 91 351 85 vstem
          298 -10 rmoveto
          94 77 55 94 49 hvcurveto
          -91 49 83 -58 95 hhcurveto
          100 92 53 79 36 hvcurveto
          -74 21 rlineto
          -52 -20 -63 -36 -67 hhcurveto
          -96 -79 77 99 -8 hvcurveto
          433 hlineto
          1 6 0 16 8 vvcurveto
          162 -9 -104 108 -149 hhcurveto
          -102 -78 -55 -97 -41 hvcurveto
          94 -39 -81 58 -98 hhcurveto
          -149 -114 -118 -154 -152 113 -117 149 hvcurveto
          1 76 rmoveto
          -97 -76 83 109 110 77 87 97 97 76 -86 -109 -109 -76 -85 -98 hvcurveto
          265 222 rmoveto
          103 6 72 74 94 hhcurveto
          93 79 -73 -104 7 hvcurveto
          endchar
        </CharString>
        <CharString name="ogonek">
          -393 -160 -21 0 callgsubr
          58 51 vstem
          142 44 callsubr
          29 24 27 58 36 vhcurveto
          -26 18 rlineto
          -74 -42 -33 -40 -40 -43 callgsubr
          endchar
        </CharString>
        <CharString name="ograve">
          -65 callgsubr
          159 350 -82 callsubr
        </CharString>
        <CharString name="ohungarumlaut">
          -49 -45 callgsubr
          29 callsubr
          90 347 90 vstem
          320 730 -64 callgsubr
          -73 -619 -106 callsubr
          endchar
        </CharString>
        <CharString name="oinvertedbreve">
          -49 -45 callgsubr
          88 -14 callsubr
          36 90 65 216 66 90 hintmask 11011110
          -102 callsubr
          173 428 rmoveto
          hintmask 11101110
          -95 callgsubr
          hintmask 11011110
          -42 callsubr
        </CharString>
        <CharString name="omacron">
          -49 -45 callgsubr
          123 58 hstem
          36 90 347 90 vstem
          446 654 rmoveto
          58 -292 -58 vlineto
          145 -664 -106 callsubr
          endchar
        </CharString>
        <CharString name="one">
          -198 0 80 312 84 95 -20 hstem
          209 90 vstem
          299 80 rmoveto
          491 -90 vlineto
          -15 -8 -97 -80 -58 hhcurveto
          -84 vlineto
          52 88 47 31 23 hvcurveto
          -390 -142 -80 359 80 vlineto
          endchar
        </CharString>
        <CharString name="one.denominator">
          -346 0 51 callgsubr
          54 -8 callgsubr
        </CharString>
        <CharString name="one.lnum">
          -207 0 80 459 82 97 -20 hstemhm
          43 249 -90 90 hintmask 11101000
          292 80 rmoveto
          638 -90 vlineto
          hintmask 11110000
          -4 -2 -86 -93 -71 hhcurveto
          -82 vlineto
          54 83 55 31 22 hvcurveto
          -545 -136 -80 353 80 vlineto
          endchar
        </CharString>
        <CharString name="one.numerator">
          -368 320 50 callsubr
          375 -80 callsubr
          endchar
        </CharString>
        <CharString name="oneeighth">
          239 -5 55 143 45 82 55 -22 53 325 -20 hstemhm
          140 56 324 -63 callsubr
          hintmask 1110111000010000
          852 25 callgsubr
          hintmask 1101110100100000
          -81 callsubr
          hintmask 1110111000010000
          -90 callsubr
          hintmask 1101110011000000
          -73 callgsubr
          hintmask 1110111001000000
          -396 80 -80 callsubr
          -104 -380 -91 callgsubr
          endchar
        </CharString>
        <CharString name="onehalf">
          244 0 54 -38 -21 325 55 -18 54 320 -20 hstemhm
          139 56 595 60 hintmask 10011110
          851 hmoveto
          54 -229 vlineto
          35 16 44 80 27 vhcurveto
          52 17 80 26 84 vvcurveto
          73 -49 51 -96 -96 -55 -50 -18 -13 vhcurveto
          34 -40 rlineto
          23 21 39 31 62 hhcurveto
          61 32 -29 -40 -59 -71 -17 -59 -24 hvcurveto
          -86 -35 -37 -48 -105 vvcurveto
          hintmask 01101110
          -342 375 -80 callsubr
          -117 -380 -91 callgsubr
          endchar
        </CharString>
        <CharString name="oneinferior">
          -347 -80 51 callgsubr
          -26 -8 callgsubr
        </CharString>
        <CharString name="onequarter">
          210 16 -21 26 -21 100 54 166 55 356 -20 hstemhm
          139 56 516 53 hintmask 01111110
          764 hmoveto
          -65 callsubr
          -345 221 -80 callsubr
          hintmask 10111110
          -80 -380 -91 callgsubr
          endchar
        </CharString>
        <CharString name="onesuperior">
          -368 400 50 callsubr
          455 -80 callsubr
          endchar
        </CharString>
        <CharString name="onethird">
          241 -5 55 134 50 86 55 -15 51 320 -20 hstemhm
          141 56 586 70 -56 56 hintmask 11011110
          686 -5 rmoveto
          88 79 39 -57 callsubr
          47 vvcurveto
          63 -92 callgsubr
          -50 23 hlineto
          hintmask 11101101
          91 58 -25 -62 callgsubr
          -37 rlineto
          -54 13 62 -32 83 hhcurveto
          -489 380 -80 callsubr
          -117 -380 -91 callgsubr
          endchar
        </CharString>
        <CharString name="oogonek">
          -49 -165 -21 177 75 389 76 hstem
          36 90 87 51 209 90 vstem
          297 -186 rmoveto
          -62 callsubr
          29 23 27 56 35 vhcurveto
          132 20 88 115 131 vvcurveto
          146 -108 125 -156 -155 -108 -125 -146 -140 99 -121 148 -8 vhcurveto
          -48 -34 -22 -33 -33 -43 callgsubr
          -171 445 rmoveto
          109 78 87 95 96 78 -86 -108 -109 -78 -86 -96 -96 -77 84 109 vhcurveto
          endchar
        </CharString>
        <CharString name="ordfeminine">
          -210 344 53 127 43 94 50 hstemhm
          46 67 178 71 -71 92 hintmask 11110100
          165 344 rmoveto
          54 50 23 42 33 hvcurveto
          1 -23 rlineto
          -23 3 17 -16 29 hhcurveto
          10 8 1 2 13 hvcurveto
          62 vlineto
          hintmask 11111000
          -15 1 -6 7 16 vvcurveto
          131 vlineto
          93 -58 51 -96 -49 -46 -15 -31 -47 vhcurveto
          23 -45 rlineto
          27 40 36 14 37 hhcurveto
          57 32 -33 -53 hvcurveto
          -25 vlineto
          11 -26 -35 6 -35 hhcurveto
          -87 -62 -46 -66 -63 52 -48 67 hvcurveto
          20 53 rmoveto
          -41 -31 28 36 38 38 25 56 28 31 -4 -11 25 hvcurveto
          -48 vlineto
          -8 -4 -10 -9 -8 vhcurveto
          -23 -18 -37 -15 -38 hhcurveto
          endchar
        </CharString>
        <CharString name="ordmasculine">
          -200 344 61 244 62 hstem
          42 72 220 72 vstem
          224 344 rmoveto
          110 72 86 97 20 callsubr
          hvcurveto
          -110 182 -22 callgsubr
        </CharString>
        <CharString name="oslash">
          -49 -10 76 -47 -21 457 76 -7 -20 hstemhm
          36 90 347 90 hintmask 01101100
          135 -2 rmoveto
          24 31 rlineto
          hintmask 10011100
          -5 callsubr
          hintmask 01101100
          3 callsubr
          hintmask 10101100
          -49 callgsubr
        </CharString>
        <CharString name="oslashacute">
          -49 -10 76 -47 -21 457 76 -7 -20 226 -20 hstemhm
          36 90 347 90 hintmask 01101110
          402 730 -100 callsubr
          -179 -611 rmoveto
          24 31 rlineto
          hintmask 10011110
          -5 callsubr
          hintmask 01101110
          3 callsubr
          hintmask 10101110
          -49 callgsubr
        </CharString>
        <CharString name="otilde">
          -49 -45 callgsubr
          96 -41 callsubr
          36 90 347 90 hintmask 11101110
          -102 callsubr
          236 368 -87 callsubr
          hintmask 11010110
          -96 callgsubr
          hintmask 11101110
          -52 callsubr
        </CharString>
        <CharString name="p">
          -25 6 callgsubr
          71 88 337 90 hintmask 11101100
          352 -58 callsubr
        </CharString>
        <CharString name="paragraph">
          -30 -59 -21 304 68 350 68 hstem
          35 75 175 76 67 76 vstem
          35 465 rmoveto
          -147 97 -92 153 -2 vhcurveto
          -304 76 304 67 -304 76 722 70 68 -257 vlineto
          -178 -104 -91 -154 hvcurveto
          75 2 rmoveto
          106 62 67 113 2 vhcurveto
          -350 vlineto
          -95 6 -80 55 114 vvcurveto
          318 -175 rmoveto
          -67 350 67 hlineto
          endchar
        </CharString>
        <CharString name="parenleft">
          -365 -21 -21 786 -20 hstem
          42 82 vstem
          42 346 rmoveto
          -129 59 -134 84 -125 vhcurveto
          65 34 rlineto
          -77 121 -49 125 105 vvcurveto
          131 77 164 51 76 vhcurveto
          -68 30 rlineto
          -79 -133 -63 -129 -136 vvcurveto
          endchar
        </CharString>
        <CharString name="parenright">
          -365 -21 -21 786 -20 hstem
          159 82 vstem
          241 346 rmoveto
          136 -63 129 -79 133 vhcurveto
          -68 -30 rlineto
          51 -76 77 -164 -131 vvcurveto
          -105 -49 -125 -77 -121 vhcurveto
          65 -34 rlineto
          84 125 59 134 129 vvcurveto
          endchar
        </CharString>
        <CharString name="partialdiff">
          -86 -10 76 297 71 204 77 hstemhm
          26 84 300 103 -83 83 hintmask 11110100
          245 -10 rmoveto
          159 109 140 269 224 -75 92 -145 -79 -75 -27 -49 -43 hvcurveto
          49 -53 rlineto
          31 26 59 21 55 hhcurveto
          89 56 -54 -165 -22 -1 -28 -3 -29 hvcurveto
          57 -20 -60 37 -75 hhcurveto
          -132 -113 -113 -126 -114 91 -91 128 hvcurveto
          2 76 rmoveto
          -78 -59 60 76 87 77 74 86 hvcurveto
          hintmask 11111000
          77 60 -59 -76 -86 -76 -76 -87 hvcurveto
          endchar
        </CharString>
        <CharString name="percent">
          85 41 callsubr
          37 64 180 64 43 64 180 64 vstem
          191 428 -70 callsubr
          -52 -40 -46 -50 hvcurveto
          351 -486 -23 callsubr
          -429 -43 -91 callgsubr
          endchar
        </CharString>
        <CharString name="period">
          -446 0 112 hstem
          64 74 vstem
          138 55 callgsubr
          endchar
        </CharString>
        <CharString name="periodcentered">
          4 callgsubr
        </CharString>
        <CharString name="perthousand">
          448 41 callsubr
          43 64 180 64 43 64 180 64 53 64 180 64 vstem
          197 428 rmoveto
          86 68 65 81 81 -68 65 -86 -85 -69 -65 -81 -81 69 -65 85 hvcurveto
          48 vmoveto
          -48 -42 44 54 52 40 46 50 48 42 -44 -54 -52 -40 -46 -50 hvcurveto
          351 -486 -23 callsubr
          361 -48 -23 callsubr
          -790 -43 -91 callgsubr
          endchar
        </CharString>
        <CharString name="pi">
          -39 -7 80 -52 -21 442 80 hstemhm
          105 85 181 85 hintmask 10111000
          371 442 rmoveto
          -339 vlineto
          -69 42 -41 65 31 45 9 12 29 vhcurveto
          -14 71 rlineto
          -7 -17 -22 -5 -15 hhcurveto
          -37 -22 23 39 hvcurveto
          307 110 80 -541 -80 80 vlineto
          hintmask 01111000
          -442 85 442 vlineto
          endchar
        </CharString>
        <CharString name="plus">
          -232 212 -21 128 72 128 -20 hstem
          168 80 vstem
          248 391 rmoveto
          128 -80 -128 -118 -72 118 -128 80 128 118 72 vlineto
          endchar
        </CharString>
        <CharString name="plusminus">
          -182 51 72 209 72 136 -20 hstem
          193 80 vstem
          399 54 callsubr
          206 353 rmoveto
          136 -80 -136 -126 -72 126 -136 80 136 126 72 vlineto
          endchar
        </CharString>
        <CharString name="product">
          77 -69 -21 720 80 hstem
          112 85 331 85 vstem
          528 -90 rmoveto
          85 720 80 80 -661 -80 80 -720 85 720 331 hlineto
          endchar
        </CharString>
        <CharString name="q">
          -25 -191 -21 202 76 39 callgsubr
          hstemhm
          37 90 337 88 -88 116 hintmask 11101100
          59 callsubr
          -245 vlineto
          -38 32 -32 37 vhcurveto
          hintmask 11101010
          14 17 1 2 16 hvcurveto
          76 vlineto
          hintmask 11011100
          -20 1 -8 9 22 vvcurveto
          623 -48 callgsubr
        </CharString>
        <CharString name="q.alt">
          -25 6 callgsubr
          37 90 337 88 hintmask 11011100
          59 callsubr
          -316 88 735 -48 callgsubr
        </CharString>
        <CharString name="question">
          -169 0 116 530 73 hstem
          146 74 144 78 vstem
          218 211 rmoveto
          88 49 25 49 27 vhcurveto
          67 37 59 38 101 vvcurveto
          131 -100 61 -99 -88 -85 -47 -82 -36 vhcurveto
          59 -39 rlineto
          51 27 54 44 67 hhcurveto
          63 60 -40 -75 -91 -87 -34 -49 -31 hvcurveto
          -61 -39 -23 -53 -72 vvcurveto
          76 -211 rmoveto
          116 -74 -116 vlineto
          endchar
        </CharString>
        <CharString name="questiondown">
          -175 -213 73 530 116 hstem
          33 78 144 74 vstem
          257 295 rmoveto
          -88 -49 -25 -49 -27 vhcurveto
          -67 -37 -59 -38 -101 vvcurveto
          -131 100 -61 99 88 85 47 82 36 vhcurveto
          -59 39 rlineto
          -51 -27 -54 -44 -67 hhcurveto
          -63 -60 40 75 91 87 34 49 31 hvcurveto
          61 39 23 53 72 vvcurveto
          -76 211 rmoveto
          -116 74 116 vlineto
          endchar
        </CharString>
        <CharString name="quotedbl">
          -324 502 216 hstem
          67 76 38 76 vstem
          143 502 rmoveto
          216 -76 -216 vlineto
          190 hmoveto
          216 -76 -216 vlineto
          endchar
        </CharString>
        <CharString name="quotedblbase">
          -299 -115 229 -114 114 hstemhm
          64 83 55 83 hintmask 10110000
          117 -115 rmoveto
          -46 callgsubr
          181 hmoveto
          -46 callgsubr
          endchar
        </CharString>
        <CharString name="quotedblleft">
          -303 501 114 -114 229 hstemhm
          62 83 55 83 hintmask 01110000
          92 730 rmoveto
          hintmask 10110000
          10 callsubr
          hintmask 01110000
          20 115 rlineto
          95 hmoveto
          hintmask 10110000
          10 callsubr
          hintmask 01110000
          20 115 rlineto
          endchar
        </CharString>
        <CharString name="quotedblright">
          -310 501 229 -114 114 hstemhm
          61 83 55 83 hintmask 10110000
          114 501 rmoveto
          -46 callgsubr
          181 hmoveto
          -46 callgsubr
          endchar
        </CharString>
        <CharString name="quoteleft">
          -441 522 -21 229 -20 hstem
          62 83 vstem
          92 730 rmoveto
          10 callsubr
          20 115 rlineto
          endchar
        </CharString>
        <CharString name="quoteright">
          -448 522 -21 229 -20 hstem
          61 83 vstem
          114 501 rmoveto
          30 115 rlineto
          114 -83 -114 30 vlineto
          -20 -115 rlineto
          endchar
        </CharString>
        <CharString name="quotesinglbase">
          -437 -94 -21 136 -21 114 -20 hstem
          64 83 vstem
          117 -115 rmoveto
          30 115 rlineto
          114 -83 -114 30 vlineto
          -20 -115 rlineto
          endchar
        </CharString>
        <CharString name="quotesingle">
          -438 501 217 hstem
          67 76 vstem
          143 501 rmoveto
          217 -76 -217 vlineto
          endchar
        </CharString>
        <CharString name="r">
          -11 callsubr
          hstemhm
          71 88 hintmask 11010000
          347 525 -64 callsubr
          hintmask 10110000
          -32 callsubr
          hintmask 11010000
          -14 callgsubr
          endchar
        </CharString>
        <CharString name="racute">
          -11 callsubr
          228 -20 hstemhm
          71 88 hintmask 11011000
          314 730 -100 callsubr
          121 -84 -64 callsubr
          hintmask 10111000
          -32 callsubr
          hintmask 11011000
          -14 callgsubr
          endchar
        </CharString>
        <CharString name="radical">
          -184 21 -21 790 -20 hstem
          10 301 rmoveto
          84 hlineto
          86 -301 rlineto
          94 hlineto
          152 790 rlineto
          -84 hlineto
          -112 -713 -63 288 rlineto
          -157 hlineto
          endchar
        </CharString>
        <CharString name="rcaron">
          -11 callsubr
          24 90 0 callsubr
          71 88 hintmask 10111100
          78 706 -94 callsubr
          221 -205 -64 callsubr
          -32 callsubr
          hintmask 11001100
          -14 callgsubr
          endchar
        </CharString>
        <CharString name="rcommaaccent">
          -285 -1 callsubr
          48 59 callgsubr
          118 -88 callsubr
          272 738 -64 callsubr
          hintmask 11011000
          -32 callsubr
          hintmask 11101000
          -14 callgsubr
          endchar
        </CharString>
        <CharString name="rdblgrave">
          -11 callsubr
          228 -20 hstemhm
          71 88 hintmask 11011000
          347 525 -64 callsubr
          hintmask 10111000
          -32 callsubr
          hintmask 11011000
          -14 callgsubr
          -72 164 -97 callgsubr
        </CharString>
        <CharString name="rdotbelow">
          -285 -182 106 97 -21 59 callgsubr
          347 525 -64 callsubr
          hintmask 11011000
          -32 callsubr
          hintmask 11101000
          -14 callgsubr
          -191 -627 -78 callgsubr
        </CharString>
        <CharString name="registered">
          188 -7 37 100 219 -57 57 171 59 98 38 hstemhm
          47 42 173 65 199 64 157 42 hintmask 1101111110000000
          417 -7 rmoveto
          213 45 callsubr
          -213 -213 43 callgsubr
          213 hvcurveto
          37 vmoveto
          -190 -138 141 184 182 138 140 190 190 140 -140 -183 -192 -144 -132 -186 hvcurveto
          -155 100 rmoveto
          65 hlineto
          hintmask 1011111110000000
          162 101 vlineto
          hintmask 1101111110000000
          102 -162 rlineto
          73 hlineto
          -109 172 rlineto
          57 14 39 57 62 vvcurveto
          70 -57 74 -79 vhcurveto
          -192 hlineto
          65 -230 rmoveto
          171 121 vlineto
          44 34 -34 -51 -50 -27 -36 -48 hvcurveto
          endchar
        </CharString>
        <CharString name="ring">
          -396 592 31 76 31 hstem
          45 41 81 40 vstem
          45 661 -85 callgsubr
          endchar
        </CharString>
        <CharString name="rinvertedbreve">
          -11 callsubr
          117 -14 callsubr
          71 88 -59 216 hintmask 11010100
          347 525 -64 callsubr
          hintmask 10110100
          -32 callsubr
          hintmask 11001100
          -14 callgsubr
          -139 242 rmoveto
          hintmask 11010010
          -95 callgsubr
          hintmask 11001100
          -42 callsubr
        </CharString>
        <CharString name="s">
          11 callgsubr
          hstem
          50 83 243 85 vstem
          254 -10 -101 callgsubr
          endchar
        </CharString>
        <CharString name="s_t">
          180 -10 65 -65 84 -60 -21 460 78 -64 64 -9 -20 198 44 hstemhm
          45 79 210 42 0 81 116 88 hintmask 0101001110100000
          797 96 rmoveto
          -6 -11 -33 -16 -32 hhcurveto
          -33 -27 17 38 hvcurveto
          324 116 vlineto
          hintmask 1000011110100000
          69 -116 vlineto
          146 -9 76 -149 -125 -44 -63 -76 -44 13 -26 17 -35 vhcurveto
          hintmask 1000101101100000
          22 -35 -50 9 -41 hhcurveto
          -94 -99 -49 -113 -99 79 -24 108 -19 hvcurveto
          63 -11 81 -5 -71 vvcurveto
          -62 -64 -23 -60 -62 -63 24 45 -60 vhcurveto
          -36 -60 rlineto
          -41 52 85 -33 85 hhcurveto
          105 99 48 111 104 -93 26 -107 15 hvcurveto
          -59 8 -74 10 70 vvcurveto
          64 59 21 60 46 53 -13 -44 47 vhcurveto
          39 53 rlineto
          -9 11 -43 62 68 vvcurveto
          54 29 42 79 vhcurveto
          hintmask 1000011110100000
          76 13 -39 -139 hvcurveto
          -71 hlineto
          hintmask 0011001110100000
          -69 71 -351 vlineto
          -75 53 -34 66 52 51 23 10 22 vhcurveto
          endchar
        </CharString>
        <CharString name="sacute">
          11 callgsubr
          0 callgsubr
          50 83 243 85 vstem
          351 730 -100 callsubr
          -9 -619 -101 callgsubr
          endchar
        </CharString>
        <CharString name="scaron">
          11 callgsubr
          0 85 0 callsubr
          50 83 243 85 hintmask 10111100
          115 706 -94 callsubr
          91 -740 rmoveto
          126 81 62 97 -10 callsubr
          hvcurveto
          -89 22 -34 11 49 vvcurveto
          hintmask 11011100
          60 51 26 64 57 57 -19 -39 44 vhcurveto
          40 53 rlineto
          41 -47 -71 28 -78 hhcurveto
          -111 -89 -57 -105 -82 53 -24 126 -31 hvcurveto
          100 -24 47 -15 -52 vvcurveto
          5 callsubr
        </CharString>
        <CharString name="schwa">
          -57 -10 66 176 58 174 67 hstem
          27 85 350 93 vstem
          292 -10 rmoveto
          157 106 122 146 149 -109 124 -156 -106 -89 -56 -76 -34 hvcurveto
          76 -21 rlineto
          51 22 63 35 64 hhcurveto
          91 77 -71 -103 8 hvcurveto
          -433 hlineto
          -1 -7 -1 -15 -8 vvcurveto
          -147 1 107 -123 157 hhcurveto
          1 66 rmoveto
          -93 -81 72 104 -7 hvcurveto
          352 hlineto
          -102 -7 -71 -74 -93 hhcurveto
          endchar
        </CharString>
        <CharString name="scircumflex">
          11 callgsubr
          0 callgsubr
          50 83 243 85 vstem
          163 616 -102 callgsubr
          139 -650 -101 callgsubr
          endchar
        </CharString>
        <CharString name="sdotbelow">
          -154 -182 106 66 65 412 64 hstem
          50 83 72 80 91 85 vstem
          254 -10 -101 callgsubr
          31 -172 -78 callgsubr
        </CharString>
        <CharString name="section">
          -131 -88 84 381 72 187 79 hstemhm
          47 89 -65 86 225 76 -76 91 hintmask 11110100
          430 201 rmoveto
          15 17 13 34 38 vvcurveto
          117 -108 41 -97 1 vhcurveto
          -67 1 -50 21 68 vvcurveto
          60 56 37 60 47 51 -16 -41 22 vhcurveto
          68 32 rlineto
          49 -33 -55 55 -105 hhcurveto
          -103 -97 -75 -102 -53 23 -42 25 -20 hvcurveto
          hintmask 11101010
          -12 -16 -12 -29 -37 vvcurveto
          -103 80 -57 119 -7 vhcurveto
          52 -3 60 -10 -67 vvcurveto
          -62 -61 -36 -59 -53 -45 20 45 -46 vhcurveto
          -57 -54 rlineto
          -41 38 69 -54 97 hhcurveto
          90 118 56 129 51 -15 34 -28 19 hvcurveto
          -273 129 rmoveto
          23 9 24 13 13 vhcurveto
          -8 19 29 -5 29 hhcurveto
          51 67 -21 -68 -24 -10 -26 -16 -13 hvcurveto
          -59 23 -132 -29 111 vvcurveto
          endchar
        </CharString>
        <CharString name="semicolon">
          -427 -60 -21 487 112 hstem
          69 73 vstem
          142 406 rmoveto
          46 callsubr
          53 -487 33 callgsubr
        </CharString>
        <CharString name="servicemark">
          91 420 49 -32 -21 247 47 5 -20 hstemhm
          60 62 113 64 46 60 205 60 hintmask 10101111
          507 532 rmoveto
          -7 callsubr
          -300 -28 rmoveto
          hintmask 10011111
          20 -28 -35 13 -44 hhcurveto
          -67 -50 -31 -56 -54 35 -19 67 -16 hvcurveto
          58 -14 15 -9 -22 vvcurveto
          -16 -19 -9 -35 -45 -40 17 17 -17 vhcurveto
          -28 -45 rlineto
          hintmask 01101111
          -27 36 44 -15 49 hhcurveto
          68 51 25 57 60 -43 21 -68 15 hvcurveto
          -56 12 -10 11 17 vvcurveto
          18 17 11 37 37 34 -16 -15 14 vhcurveto
          endchar
        </CharString>
        <CharString name="seven">
          -113 -106 -21 629 81 hstem
          74 -127 rmoveto
          100 hlineto
          357 710 rlineto
          -504 -81 365 hlineto
          endchar
        </CharString>
        <CharString name="seven.denominator">
          -283 21 -21 351 55 hstem
          57 hmoveto
          24 callsubr
        </CharString>
        <CharString name="seven.lnum">
          -114 21 -21 629 81 hstem
          79 hmoveto
          99 hlineto
          358 710 rlineto
          -504 -81 364 hlineto
          endchar
        </CharString>
        <CharString name="seven.numerator">
          -283 346 -21 350 55 hstem
          57 325 -8 callsubr
        </CharString>
        <CharString name="seveneighths">
          226 -5 55 143 45 115 53 269 55 hstemhm
          506 -63 callsubr
          hintmask 1111100001000000
          838 25 callgsubr
          hintmask 1111010010000000
          -81 callsubr
          hintmask 1111100001000000
          -90 callsubr
          hintmask 1111001100000000
          -73 callgsubr
          -460 -300 -91 callgsubr
          -3 292 -8 callsubr
        </CharString>
        <CharString name="seveninferior">
          -283 -59 -21 351 55 hstem
          57 -80 rmoveto
          24 callsubr
        </CharString>
        <CharString name="sevensuperior">
          -283 426 -21 350 55 hstem
          57 405 -8 callsubr
        </CharString>
        <CharString name="six">
          -74 callgsubr
        </CharString>
        <CharString name="six.denominator">
          -238 -5 18 callsubr
          135 -59 callgsubr
        </CharString>
        <CharString name="six.lnum">
          -74 callgsubr
        </CharString>
        <CharString name="six.numerator">
          -239 315 23 callsubr
          456 -59 callsubr
        </CharString>
        <CharString name="sixinferior">
          -238 -85 18 callsubr
          55 -59 callgsubr
        </CharString>
        <CharString name="sixsuperior">
          -239 395 23 callsubr
          536 -59 callsubr
        </CharString>
        <CharString name="slash">
          -15 -28 callgsubr
          506 2 callgsubr
          -479 -710 rlineto
          98 hlineto
          480 710 rlineto
          endchar
        </CharString>
        <CharString name="space">
          -395 endchar
        </CharString>
        <CharString name="sterling">
          -136 -15 76 -51 69 228 68 267 73 hstemhm
          77 81 14 77 hintmask 01111100
          53 307 rmoveto
          113 hlineto
          4 -15 2 -16 -16 vvcurveto
          -65 -33 -58 -86 -81 vhcurveto
          22 -64 rlineto
          -36 callgsubr
          72 77 26 53 65 vvcurveto
          15 -2 14 -2 14 vhcurveto
          157 68 -179 hlineto
          -27 59 -38 47 54 3 callgsubr
          -62 36 -50 27 -55 hvcurveto
          -87 hlineto
          endchar
        </CharString>
        <CharString name="summation">
          -102 0 80 557 73 hstem
          497 2 callgsubr
          -458 -56 hlineto
          216 -298 -223 -293 rlineto
          -63 480 80 -374 4 vlineto
          212 285 -191 264 rlineto
          4 338 vlineto
          endchar
        </CharString>
        <CharString name="t">
          -296 -7 81 379 69 174 -20 hstem
          96 88 vstem
          -35 callsubr
          endchar
        </CharString>
        <CharString name="t.alt">
          -312 21 -21 442 80 174 -20 hstem
          104 90 vstem
          194 hmoveto
          442 123 80 -123 174 -90 -174 -77 -80 77 -442 vlineto
          endchar
        </CharString>
        <CharString name="tbar">
          -295 -7 81 220 56 103 69 174 -20 hstem
          97 88 vstem
          321 96 rmoveto
          -44 callsubr
          165 117 56 -117 103 -50 callgsubr
          -103 -71 -56 71 -192 vlineto
          -75 54 -34 64 56 49 23 10 22 vhcurveto
          endchar
        </CharString>
        <CharString name="tcaron">
          -296 -7 81 379 69 208 -20 hstem
          96 88 vstem
          390 730 -100 callsubr
          18 -513 rmoveto
          -29 callgsubr
        </CharString>
        <CharString name="tdotbelow">
          -296 -182 106 69 81 25 callsubr
          -16 80 hintmask 11111000
          -35 callsubr
          hintmask 11110100
          -93 -208 -78 callgsubr
        </CharString>
        <CharString name="thorn">
          -45 -192 -21 195 80 392 80 176 -20 hstem
          71 90 317 90 vstem
          568 257 rmoveto
          132 -95 145 -154 -78 -48 -40 -45 -32 vhcurveto
          261 -90 -923 90 273 vlineto
          -41 25 55 -37 69 hhcurveto
          143 113 130 145 2 hvcurveto
          -90 1 rmoveto
          -102 -71 -94 -99 -63 -84 55 56 vhcurveto
          171 vlineto
          59 30 51 51 72 hhcurveto
          99 65 -93 -103 hvcurveto
          endchar
        </CharString>
        <CharString name="three">
          -108 -147 80 263 74 227 79 hstemhm
          391 93 -78 91 hintmask 11110000
          358 236 rmoveto
          78 13 48 70 79 vvcurveto
          107 -88 71 -126 -100 -89 -45 -67 -35 vhcurveto
          54 -56 rlineto
          56 31 57 33 73 hhcurveto
          75 55 -34 -71 -70 -53 -52 -96 hvcurveto
          -28 -74 26 hlineto
          hintmask 11101000
          108 58 -54 -84 -83 -56 -42 -92 -83 -51 34 54 -30 hvcurveto
          -59 -59 rlineto
          -69 42 80 -40 101 hhcurveto
          144 95 82 123 94 -54 69 -85 15 hvcurveto
          endchar
        </CharString>
        <CharString name="three.denominator">
          -253 -5 55 134 50 -20 callsubr
          -5 rmoveto
          88 79 39 -57 callsubr
          47 vvcurveto
          63 -92 callgsubr
          -50 23 hlineto
          hintmask 11101000
          91 58 -25 -62 callgsubr
          -37 rlineto
          -54 13 62 -32 83 hhcurveto
          endchar
        </CharString>
        <CharString name="three.lnum">
          -63 -9 82 253 75 240 78 hstemhm
          425 93 -74 74 -74 91 hintmask 11100100
          281 -9 rmoveto
          133 121 71 124 89 -61 75 -94 17 hvcurveto
          hintmask 11110000
          88 21 50 54 81 vvcurveto
          111 -102 85 -138 -95 -94 -42 -70 -40 vhcurveto
          59 -61 rlineto
          51 24 61 44 86 hhcurveto
          76 70 -46 -76 -79 -79 -39 -123 hvcurveto
          -34 -75 34 hlineto
          hintmask 11101000
          136 85 -47 -82 -75 -72 -49 -92 -109 -69 69 59 -6 hvcurveto
          -50 -53 rlineto
          -95 20 92 -62 123 hhcurveto
          endchar
        </CharString>
        <CharString name="three.numerator">
          -254 314 56 133 51 -20 callsubr
          314 rmoveto
          88 79 40 -57 callsubr
          46 vvcurveto
          64 -92 callgsubr
          -51 23 hlineto
          hintmask 11101000
          91 58 -24 -62 callgsubr
          -38 rlineto
          -53 13 62 -33 83 hhcurveto
          endchar
        </CharString>
        <CharString name="threeeighths">
          244 -5 55 143 45 76 56 -17 53 97 51 126 51 hstemhm
          296 70 -56 56 159 -63 callsubr
          hintmask 1110111010010000
          199 314 rmoveto
          88 79 40 -57 callsubr
          46 vvcurveto
          64 -92 callgsubr
          -51 23 hlineto
          hintmask 1110110110000100
          91 58 -24 -62 callgsubr
          -38 rlineto
          -53 13 62 -33 83 hhcurveto
          658 -199 26 callsubr
          hintmask 1101111001001000
          -81 callsubr
          hintmask 1110111010000100
          -90 callsubr
          hintmask 1101111000110000
          -73 callgsubr
          -405 -300 rmoveto
          272 348 277 335 -43 37 rlineto
          hintmask 1110111010010000
          -268 -345 -280 -337 rlineto
          endchar
        </CharString>
        <CharString name="threeinferior">
          -253 -85 55 134 50 -20 callsubr
          -85 rmoveto
          88 79 39 -57 callsubr
          47 vvcurveto
          63 -92 callgsubr
          -50 23 hlineto
          hintmask 11101000
          91 58 -25 -62 callgsubr
          -37 rlineto
          -54 13 62 -32 83 hhcurveto
          endchar
        </CharString>
        <CharString name="threequarters">
          218 16 -21 26 -21 100 54 160 56 133 51 126 51 hstemhm
          295 70 -56 56 353 53 hintmask 0111111010000000
          198 314 rmoveto
          88 79 40 -57 callsubr
          46 vvcurveto
          64 -92 callgsubr
          -51 23 hlineto
          hintmask 0111110110000000
          91 58 -24 -62 callgsubr
          -38 rlineto
          -53 13 62 -33 83 hhcurveto
          573 -314 rmoveto
          -65 callsubr
          hintmask 1011111010000000
          -327 -159 -91 callgsubr
          endchar
        </CharString>
        <CharString name="threesuperior">
          -254 394 56 133 51 -20 callsubr
          394 rmoveto
          88 79 40 -57 callsubr
          46 vvcurveto
          64 -92 callgsubr
          -51 23 hlineto
          hintmask 11101000
          91 58 -24 -62 callgsubr
          -38 rlineto
          -53 13 62 -33 83 hhcurveto
          endchar
        </CharString>
        <CharString name="tilde">
          -233 627 54 -39 -21 48 -5 callgsubr
          hintmask 10010000
          270 23 callgsubr
          hintmask 01100000
          -96 callgsubr
          hintmask 10010000
          -52 callsubr
        </CharString>
        <CharString name="trademark">
          112 441 -21 232 60 -2 -20 hstemhm
          158 60 141 60 205 60 hintmask 11011100
          313 712 rmoveto
          -250 -60 95 -232 60 232 95 hlineto
          208 -120 rmoveto
          hintmask 10111100
          -7 callsubr
          endchar
        </CharString>
        <CharString name="two">
          -113 0 80 423 78 hstem
          382 95 vstem
          488 hmoveto
          80 -341 vlineto
          13 75 97 53 59 29 rrcurveto
          59 29 102 51 103 vvcurveto
          89 -76 72 -123 -124 -81 -72 -23 -22 vhcurveto
          57 -64 rlineto
          30 25 48 51 81 hhcurveto
          78 42 -47 -46 -71 -97 -34 -79 -44 hvcurveto
          -135 -76 -28 -78 -107 vvcurveto
          endchar
        </CharString>
        <CharString name="two.denominator">
          -248 0 7 callgsubr
          360 hmoveto
          -47 callsubr
        </CharString>
        <CharString name="two.lnum">
          -58 0 80 557 82 hstem
          46 112 279 98 vstem
          536 hmoveto
          80 -378 vlineto
          91 39 48 136 64 vhcurveto
          98 46 104 51 132 vvcurveto
          113 -77 94 -149 -149 -87 -94 -27 -22 vhcurveto
          57 -57 rlineto
          39 32 66 57 94 hhcurveto
          93 44 -57 -70 -111 -112 -28 -89 -44 hvcurveto
          -125 -62 -65 -79 -186 vvcurveto
          endchar
        </CharString>
        <CharString name="two.numerator">
          -252 320 7 callgsubr
          352 320 -47 callgsubr
        </CharString>
        <CharString name="twoinferior">
          -248 -80 7 callgsubr
          360 -80 rmoveto
          -47 callsubr
        </CharString>
        <CharString name="twosuperior">
          -252 400 7 callgsubr
          352 400 -47 callgsubr
        </CharString>
        <CharString name="twothirds">
          251 -5 55 134 50 86 54 -14 51 266 54 hstemhm
          296 59 439 70 -56 56 hintmask 11011110
          697 -5 rmoveto
          88 79 39 -57 callsubr
          47 vvcurveto
          63 -92 callgsubr
          -50 23 hlineto
          hintmask 11101101
          91 58 -25 -62 callgsubr
          -37 rlineto
          -54 13 62 -32 83 hhcurveto
          -348 325 rmoveto
          54 -223 vlineto
          35 17 44 79 27 vhcurveto
          52 17 81 27 84 vvcurveto
          72 -49 51 -96 -96 -56 -50 -18 -12 vhcurveto
          34 -39 rlineto
          22 21 39 31 62 hhcurveto
          62 32 -29 -39 -59 -72 -18 -60 -24 hvcurveto
          -85 -35 -37 -48 -105 vvcurveto
          163 -325 -91 callgsubr
          endchar
        </CharString>
        <CharString name="u">
          -49 callsubr
          -24 callsubr
          hintmask 10111000
          -38 callsubr
          hintmask 01110100
          -85 callsubr
          hintmask 10111000
          -76 callsubr
        </CharString>
        <CharString name="u.alt">
          -52 -10 76 -45 -31 callsubr
          -2 callsubr
          hintmask 01111000
          525 hmoveto
          522 -88 -327 vlineto
          hintmask 10111000
          -73 -28 -67 -56 -73 hhcurveto
          -92 -23 71 89 hvcurveto
          296 -88 -313 vlineto
          -121 38 -98 134 82 80 43 74 40 vhcurveto
          hintmask 01111000
          -107 vlineto
          endchar
        </CharString>
        <CharString name="uacute">
          5 callgsubr
          397 730 -100 callsubr
          -77 -619 -72 callgsubr
          hintmask 01111010
          -85 callsubr
          hintmask 10111100
          -76 callsubr
        </CharString>
        <CharString name="ubreve">
          -47 -10 76 -48 -21 525 38 callsubr
          66 88 32 216 35 -58 callgsubr
          hintmask 1011011100000000
          -105 callsubr
          62 672 rmoveto
          hintmask 1010111100000000
          -93 callgsubr
          hintmask 1011011100000000
          -54 callsubr
        </CharString>
        <CharString name="ucircumflex">
          5 callgsubr
          209 616 -102 callgsubr
          71 -650 -72 callgsubr
          hintmask 01111010
          -85 callsubr
          hintmask 10111100
          -76 callsubr
        </CharString>
        <CharString name="udblgrave">
          5 callgsubr
          -38 callsubr
          hintmask 01111010
          -85 callsubr
          hintmask 10111100
          -105 callsubr
          123 619 -97 callgsubr
        </CharString>
        <CharString name="udieresis">
          -49 callsubr
          122 102 hstemhm
          66 88 22 74 88 74 25 88 -75 103 hintmask 1011111100000000
          250 624 -91 callsubr
          -106 -634 -72 callgsubr
          hintmask 0111111010000000
          -85 callsubr
          hintmask 1011111100000000
          -76 callsubr
        </CharString>
        <CharString name="udotbelow">
          -47 -182 106 66 -37 callgsubr
          hstemhm
          66 88 94 80 109 88 -75 103 hintmask 11011110
          -38 callsubr
          hintmask 10111101
          -85 callsubr
          hintmask 11011110
          -105 callsubr
          96 -172 -78 callgsubr
        </CharString>
        <CharString name="ugrave">
          5 callgsubr
          -38 callsubr
          hintmask 01111010
          -85 callsubr
          hintmask 10111100
          -105 callsubr
          48 619 -82 callsubr
        </CharString>
        <CharString name="uhungarumlaut">
          5 callgsubr
          -38 callsubr
          hintmask 01111010
          -85 callsubr
          hintmask 10111100
          -105 callsubr
          83 740 -64 callgsubr
          endchar
        </CharString>
        <CharString name="uinvertedbreve">
          -49 callsubr
          117 -14 callsubr
          66 88 31 216 36 -58 callgsubr
          hintmask 1010111100000000
          -105 callsubr
          61 697 rmoveto
          hintmask 1011011100000000
          -95 callgsubr
          hintmask 1010111100000000
          -42 callsubr
        </CharString>
        <CharString name="umacron">
          -49 callsubr
          152 58 -24 callsubr
          hintmask 10111100
          -38 callsubr
          hintmask 01111010
          -85 callsubr
          hintmask 10111100
          -105 callsubr
          209 664 -40 callgsubr
        </CharString>
        <CharString name="underscore">
          -145 -80 80 hstem
          440 -80 rmoveto
          80 -377 -80 vlineto
          endchar
        </CharString>
        <CharString name="uni00A0">
          -395 endchar
        </CharString>
        <CharString name="uni00AD">
          14 callsubr
        </CharString>
        <CharString name="uni015E">
          -39 29 callgsubr
          37 80 561 80 hstem
          56 93 239 46 46 96 vstem
          223 -81 callgsubr
          26 42 rlineto
          132 7 99 62 128 vvcurveto
          128 -92 42 -148 33 vhcurveto
          -128 29 -59 20 76 vvcurveto
          -56 callgsubr
          42 73 rlineto
          -93 callsubr
          -71 -59 -37 -101 -108 -97 50 45 -43 vhcurveto
          -43 -76 75 -62 94 -34 102 -3 rlinecurve
          -43 -82 -79 callsubr
        </CharString>
        <CharString name="uni015F">
          -154 29 callgsubr
          34 64 412 64 hstem
          50 83 188 46 9 85 vstem
          156 -81 callgsubr
          24 39 rlineto
          113 7 72 60 91 vvcurveto
          -10 callsubr
          vhcurveto
          -89 22 -34 11 49 vvcurveto
          60 51 26 64 57 57 -19 -39 44 vhcurveto
          40 53 rlineto
          41 -47 -71 28 -78 hhcurveto
          -111 -89 -57 -105 -82 53 -24 126 -31 hvcurveto
          100 -24 47 -15 -52 vvcurveto
          -54 -49 -32 -75 -67 -61 24 46 -61 vhcurveto
          -38 -59 53 -45 77 -25 77 -5 rlinecurve
          -42 -79 -79 callsubr
        </CharString>
        <CharString name="uni0162">
          -35 29 callgsubr
          64 -21 630 80 hstem
          261 90 24 46 vstem
          210 -81 callgsubr
          30 48 rlineto
          15 630 245 80 -580 -80 245 -630 30 hlineto
          -47 -88 -79 callsubr
        </CharString>
        <CharString name="uni0163">
          -296 29 callgsubr
          -32 149 25 callsubr
          97 46 hintmask 11011110
          116 -81 callgsubr
          27 43 45 5 38 17 19 9 rlinecurve
          -21 70 rlineto
          hintmask 10111110
          -51 callsubr
          -67 43 -35 54 -6 vhcurveto
          -43 -82 -79 callsubr
        </CharString>
        <CharString name="uni01C4">
          699 0 80 550 80 0 92 114 48 callgsubr
          408 91 hintmask 11011100
          -86 callgsubr
          331 536 rmoveto
          hintmask 10111100
          101 -90 rlineto
          64 hlineto
          101 90 -48 24 -85 -63 -85 63 rlineto
          -214 -916 19 callgsubr
          vlineto
          hintmask 11011100
          -80 449 vlineto
          -458 -560 rlineto
          endchar
        </CharString>
        <CharString name="uni01C5">
          42 callgsubr
          20 48 callgsubr
          408 91 hintmask 10110110
          331 hmoveto
          -80 callgsubr
          hintmask 01110110
          -157 -88 -119 -164 vhcurveto
          -156 550 156 hlineto
          161 91 -114 -160 hvcurveto
          254 350 rmoveto
          101 -90 rlineto
          64 hlineto
          101 90 rlineto
          hintmask 10101110
          -48 24 -85 -63 -85 63 rlineto
          -139 -730 -3 callgsubr
        </CharString>
        <CharString name="uni01C6">
          -78 callsubr
          443 640 -94 callsubr
          hintmask 0011011100000000
          -139 -730 rmoveto
          429 hlineto
          hintmask 1000111100000000
          -30 callsubr
        </CharString>
        <CharString name="uni01C7">
          421 0 80 -70 -21 721 48 callgsubr
          727 90 hintmask 10111000
          6 callsubr
          511 33 rmoveto
          hintmask 01111000
          -88 callgsubr
        </CharString>
        <CharString name="uni01C8">
          173 -186 78 108 80 442 -20 118 110 -20 48 callgsubr
          487 88 hintmask 11101110
          6 callsubr
          503 -186 -95 callsubr
          hintmask 11110110
          -54 callgsubr
        </CharString>
        <CharString name="uni01C9">
          -125 -186 78 101 80 449 -20 118 110 hstem
          73 88 203 88 -16 callgsubr
          217 -916 -34 callgsubr
        </CharString>
        <CharString name="uni01CA">
          607 -11 81 -49 -22 callsubr
          420 90 403 90 hintmask 01101110
          63 callgsubr
          hintmask 01011110
          -440 553 rlineto
          -70 -710 90 542 hlineto
          607 -509 rmoveto
          hintmask 10011110
          -88 callgsubr
        </CharString>
        <CharString name="uni01CB">
          359 36 callsubr
          -20 53 callsubr
          163 88 hintmask 11101111
          609 hmoveto
          -69 callsubr
          599 -728 -95 callsubr
          hintmask 11110111
          -54 callgsubr
        </CharString>
        <CharString name="uni01CC">
          179 -186 78 129 34 callsubr
          -9 -20 118 110 -1 callgsubr
          144 88 hintmask 11101111
          524 312 rmoveto
          -67 callsubr
          hintmask 11011111
          -56 callsubr
          hintmask 11101111
          -73 callsubr
          70 -186 rmoveto
          85 77 70 99 hvcurveto
          hintmask 11011111
          539 -88 -545 vlineto
          -49 -41 -36 -43 -24 -26 6 17 -19 vhcurveto
          -41 -59 rlineto
          -29 32 42 -13 46 hhcurveto
          -54 callgsubr
        </CharString>
        <CharString name="uni01F1">
          686 0 80 550 80 hstem
          85 90 408 91 vstem
          -86 callgsubr
          152 -356 -3 callsubr
        </CharString>
        <CharString name="uni01F2">
          42 callgsubr
          hstemhm
          85 90 408 91 hintmask 10111100
          331 hmoveto
          -80 callgsubr
          hintmask 01111100
          -157 -88 -119 -164 vhcurveto
          -156 550 156 hlineto
          161 91 -114 -160 hvcurveto
          163 -356 rmoveto
          429 hlineto
          hintmask 10111100
          -30 callsubr
        </CharString>
        <CharString name="uni01F3">
          -78 callsubr
          hintmask 0011011100000000
          352 -66 rmoveto
          429 hlineto
          hintmask 1000111100000000
          -30 callsubr
        </CharString>
        <CharString name="uni0218">
          -39 -1 callsubr
          41 0 81 561 80 hstemhm
          56 93 129 78 124 96 hintmask 11011110
          326 -88 callsubr
          261 847 rmoveto
          -93 callsubr
          hintmask 10111110
          -71 -59 -37 -101 -108 -97 50 45 -43 vhcurveto
          -43 -76 rlineto
          -65 80 100 -35 109 hhcurveto
          146 112 61 137 128 -92 42 -148 33 hvcurveto
          -128 29 -59 20 76 vvcurveto
          37 callsubr
        </CharString>
        <CharString name="uni0219">
          -154 -1 callsubr
          38 0 65 412 64 hstemhm
          50 83 78 78 87 85 hintmask 11011110
          259 -88 callsubr
          38 203 rmoveto
          126 81 62 97 -10 callsubr
          hvcurveto
          -89 22 -34 11 49 vvcurveto
          60 51 26 64 57 57 -19 -39 44 vhcurveto
          40 53 rlineto
          41 -47 -71 28 -78 hhcurveto
          -111 -89 -57 -105 -82 53 -24 126 -31 hvcurveto
          100 -24 47 -15 -52 vvcurveto
          hintmask 10111110
          5 callsubr
        </CharString>
        <CharString name="uni021A">
          -34 -1 callsubr
          48 630 80 hstem
          262 90 vstem
          316 -88 callsubr
          324 923 rmoveto
          -580 -80 245 -630 90 630 245 hlineto
          endchar
        </CharString>
        <CharString name="uni021B">
          -296 -1 callsubr
          41 0 81 25 callsubr
          -13 78 hintmask 11011010
          219 -88 callsubr
          144 309 rmoveto
          hintmask 10111100
          -29 callgsubr
        </CharString>
        <CharString name="uni02C9">
          -245 654 58 hstem
          348 654 -40 callgsubr
        </CharString>
        <CharString name="uni030F">
          -310 -4 callsubr
          252 609 -97 callgsubr
        </CharString>
        <CharString name="uni0311">
          -352 619 -14 callsubr
          40 216 hintmask 01100000
          148 687 rmoveto
          hintmask 10100000
          -95 callgsubr
          hintmask 01100000
          -42 callsubr
        </CharString>
        <CharString name="uni0394">
          -1 0 17 callsubr
          361 -12 callsubr
        </CharString>
        <CharString name="uni03A9">
          -71 callsubr
        </CharString>
        <CharString name="uni03BC">
          -41 45 callgsubr
          71 58 callsubr
          71 -57 callgsubr
        </CharString>
        <CharString name="uni0400">
          -42 -66 callsubr
          207 -20 hstem
          87 90 vstem
          177 80 rmoveto
          245 333 75 -333 230 383 80 -473 -710 482 80 vlineto
          -248 716 -82 callsubr
        </CharString>
        <CharString name="uni0401">
          -42 -66 callsubr
          101 102 hstem
          87 90 41 74 88 74 vstem
          292 -28 callsubr
        </CharString>
        <CharString name="uni0402">
          63 -10 76 -45 -21 369 80 181 80 hstemhm
          202 90 297 95 hintmask 01111100
          202 hmoveto
          90 300 hlineto
          47 51 55 22 60 hhcurveto
          91 40 -49 -106 hvcurveto
          hintmask 10111100
          -99 -35 -49 -76 -27 -26 6 17 -39 vhcurveto
          -26 -77 rlineto
          -15 39 40 -7 40 hhcurveto
          136 69 80 143 154 -80 82 -134 -69 -64 -22 -39 -45 hvcurveto
          242 275 80 -550 -80 185 vlineto
          endchar
        </CharString>
        <CharString name="uni0403">
          -135 21 -21 630 80 206 -20 hstem
          87 90 vstem
          402 916 -100 callsubr
          182 -85 rmoveto
          -409 -710 90 630 319 hlineto
          endchar
        </CharString>
        <CharString name="uni0404">
          60 callgsubr
          600 200 rmoveto
          -88 -43 -92 -37 -78 hhcurveto
          -146 -96 115 135 -13 hvcurveto
          355 75 -353 hlineto
          119 15 79 114 156 hhcurveto
          76 87 -30 -90 44 hvcurveto
          71 46 rlineto
          91 -46 -87 64 -141 hhcurveto
          -230 -118 -182 -172 -180 132 -186 211 134 111 59 106 47 hvcurveto
          endchar
        </CharString>
        <CharString name="uni0405">
          28 callgsubr
          hstem
          56 93 331 96 vstem
          544 634 -103 callgsubr
          37 callsubr
        </CharString>
        <CharString name="uni0406">
          -384 -28 callgsubr
          87 90 vstem
          177 hmoveto
          710 -90 -710 vlineto
          endchar
        </CharString>
        <CharString name="uni0407">
          -384 -76 callgsubr
          121 102 hstemhm
          14 53 callgsubr
          177 hmoveto
          710 -90 -710 vlineto
          hintmask 11110100
          1 811 -20 callgsubr
        </CharString>
        <CharString name="uni0408">
          -161 -11 81 640 -20 hstem
          318 90 vstem
          12 33 rmoveto
          -88 callgsubr
        </CharString>
        <CharString name="uni0409">
          354 0 78 -64 -21 347 78 212 80 hstemhm
          479 90 314 91 hintmask 01111100
          23 -7 rmoveto
          151 62 152 367 31 hvcurveto
          10 118 rlineto
          202 hlineto
          hintmask 10111100
          -630 287 vlineto
          114 94 15 callsubr
          -197 292 31 callgsubr
          hintmask 01111100
          hintmask 10111100
          562 -2 15 callgsubr
        </CharString>
        <CharString name="uni040A">
          393 0 78 260 80 292 -20 hstem
          87 90 341 90 314 91 vstem
          87 hmoveto
          90 338 341 -338 287 hlineto
          114 94 15 callsubr
          -197 292 -90 -292 -341 292 -90 hlineto
          521 -632 15 callgsubr
        </CharString>
        <CharString name="uni040B">
          69 21 -21 369 80 181 80 hstem
          202 90 297 88 vstem
          589 hmoveto
          88 259 hlineto
          129 -76 61 -118 -74 -70 -24 -38 -47 vhcurveto
          243 275 80 -550 -80 185 -630 90 300 vlineto
          43 49 62 26 70 hhcurveto
          82 34 -36 -94 hvcurveto
          endchar
        </CharString>
        <CharString name="uni040C">
          -25 21 -21 321 80 309 -20 226 -30 callgsubr
          255 515 -52 callgsubr
        </CharString>
        <CharString name="uni040D">
          76 -76 callgsubr
          227 -20 hstem
          87 90 395 90 vstem
          177 710 -33 callgsubr
          174 659 -82 callsubr
        </CharString>
        <CharString name="uni040E">
          -25 -7 78 639 -20 109 49 -49 117 hstemhm
          167 53 hintmask 11011000
          -18 callgsubr
          -82 -34 -32 -22 -48 hhcurveto
          -21 -31 41 callgsubr
          149 806 rmoveto
          89 61 43 74 2 hvcurveto
          -52 hlineto
          hintmask 11101000
          -39 -7 -39 -29 -53 hhcurveto
          hintmask 11011000
          35 callsubr
          endchar
        </CharString>
        <CharString name="uni040F">
          49 -164 -21 185 17 callsubr
          88 90 125 90 126 90 vstem
          88 hmoveto
          215 -185 90 185 216 710 -90 -630 -341 630 -90 hlineto
          endchar
        </CharString>
        <CharString name="uni0410">
          -61 callgsubr
          hstem
          -104 callsubr
          endchar
        </CharString>
        <CharString name="uni0411">
          10 0 78 262 78 212 80 hstem
          87 90 354 91 vstem
          87 hmoveto
          327 hlineto
          115 93 15 callsubr
          -237 212 409 80 -499 hlineto
          90 -632 rmoveto
          262 237 vlineto
          77 40 -51 -80 -80 -41 -51 -76 hvcurveto
          endchar
        </CharString>
        <CharString name="uni0412">
          25 0 78 244 73 237 78 hstemhm
          67 90 336 89 -61 91 hintmask 11110100
          612 -66 callgsubr
        </CharString>
        <CharString name="uni0413">
          -135 21 -21 630 80 hstem
          87 90 vstem
          496 2 callgsubr
          -409 -710 90 630 319 hlineto
          endchar
        </CharString>
        <CharString name="uni0414">
          68 -165 -21 186 80 550 80 hstem
          18 80 401 90 30 80 vstem
          18 -186 rmoveto
          80 186 521 -186 80 266 -110 630 31 callgsubr
          -9 hlineto
          153 hmoveto
          62 62 34 131 20 239 10 118 rcurveline
          202 -550 hlineto
          endchar
        </CharString>
        <CharString name="uni0415">
          -42 -66 callsubr
          hstem
          87 90 vstem
          177 80 rmoveto
          245 333 75 -333 230 383 80 -473 -710 482 80 vlineto
          endchar
        </CharString>
        <CharString name="uni0416">
          324 21 -21 321 80 309 -20 hstem
          436 100 vstem
          2 hmoveto
          103 hlineto
          197 321 rlineto
          134 -321 100 321 134 hlineto
          197 -321 rlineto
          103 hlineto
          -236 367 213 343 rlineto
          -103 hlineto
          -188 -309 rlineto
          -120 309 -100 -309 -120 hlineto
          -188 309 rlineto
          -103 hlineto
          213 -343 rlineto
          endchar
        </CharString>
</ttFont>
